<svg width="21" height="22" viewBox="0 0 21 22" fill="none" xmlns="http://www.w3.org/2000/svg">
<g id="icono search">
<g id="icono search_2">
<g id="Group 1361">
<g id="Group 1360">
<path id="Path 1844" d="M20.3249 17.284L18.1249 15.084C18.053 15.0104 17.9658 14.9535 17.8695 14.9174C17.7731 14.8814 17.67 14.867 17.5675 14.8753C17.4649 14.8836 17.3655 14.9144 17.2762 14.9655C17.1869 15.0166 17.11 15.0868 17.0509 15.171C16.4646 15.9761 15.756 16.6847 14.9509 17.271C14.8662 17.3308 14.7955 17.4082 14.7437 17.498C14.6919 17.5878 14.6602 17.6878 14.6509 17.791C14.6437 17.8931 14.6588 17.9954 14.6951 18.0911C14.7313 18.1867 14.7879 18.2734 14.8609 18.345L17.0609 20.545C17.4932 20.9773 18.0795 21.2202 18.6909 21.2202C19.3023 21.2202 19.8886 20.9773 20.3209 20.545C20.7532 20.1127 20.9961 19.5264 20.9961 18.915C20.9961 18.3037 20.7532 17.7173 20.3209 17.285L20.3249 17.284Z" fill="black"/>
<path id="Path 1845" d="M9.14602 18.513C10.9548 18.5128 12.723 17.9763 14.2269 16.9712C15.7308 15.9662 16.9029 14.5377 17.595 12.8666C18.2871 11.1954 18.4682 9.35653 18.1152 7.58247C17.7623 5.80841 16.8913 4.17884 15.6122 2.89981C14.3332 1.62078 12.7036 0.749731 10.9296 0.396799C9.15551 0.0438667 7.31663 0.224904 5.64546 0.917019C3.97429 1.60913 2.54587 2.78124 1.54082 4.28514C0.535768 5.78904 -0.00077878 7.55719 -0.000976562 9.36601C0.00167038 11.7911 0.966219 14.1162 2.68104 15.831C4.39586 17.5458 6.7209 18.5104 9.14602 18.513ZM9.14602 2.96601C10.4118 2.96601 11.6492 3.34137 12.7017 4.04461C13.7541 4.74785 14.5745 5.74739 15.0589 6.91684C15.5433 8.08629 15.67 9.37311 15.423 10.6146C15.1761 11.8561 14.5666 12.9964 13.6715 13.8915C12.7765 14.7866 11.6361 15.3961 10.3946 15.643C9.15312 15.89 7.8663 15.7632 6.69685 15.2788C5.5274 14.7944 4.52786 13.9741 3.82462 12.9217C3.12138 11.8692 2.74602 10.6318 2.74602 9.36601C2.74788 7.6691 3.42272 6.04221 4.62253 4.84222C5.82233 3.64223 7.44911 2.96713 9.14602 2.96501V2.96601Z" fill="black"/>
</g>
</g>
</g>
<path id="Color Overlay" d="M17.0649 20.544L14.865 18.344C14.7911 18.2722 14.734 18.185 14.6978 18.0886C14.6615 17.9922 14.6469 17.8889 14.6552 17.7863C14.6634 17.6836 14.6941 17.584 14.7452 17.4946C14.7964 17.4052 14.8667 17.3281 14.951 17.269C15.7564 16.6829 16.465 15.9744 17.051 15.169C17.1101 15.0848 17.187 15.0146 17.2762 14.9635C17.3655 14.9124 17.4651 14.8815 17.5676 14.8732C17.6702 14.8649 17.7733 14.8793 17.8696 14.9154C17.966 14.9515 18.0531 15.0084 18.125 15.082L20.325 17.282C20.7573 17.7144 21.0001 18.3009 21 18.9123C20.9999 19.5238 20.7569 20.1102 20.3245 20.5425C19.892 20.9748 19.3056 21.2176 18.6941 21.2175C18.0826 21.2174 17.4963 20.9744 17.064 20.542L17.0649 20.544ZM5.46927e-08 9.36599C-0.000197731 7.55684 0.536051 5.78826 1.54102 4.28391C2.54598 2.77957 3.9745 1.60703 5.64587 0.914559C7.31725 0.222091 9.1565 0.0407978 10.9309 0.393624C12.7053 0.74645 14.3352 1.61755 15.6145 2.89674C16.8938 4.17593 17.7651 5.80576 18.1182 7.58013C18.4712 9.3545 18.2901 11.1937 17.5978 12.8652C16.9055 14.5366 15.7331 15.9652 14.2289 16.9704C12.7246 17.9755 10.9561 18.512 9.14697 18.512C6.72202 18.5094 4.39717 17.5449 2.68237 15.8303C0.96758 14.1157 0.00291162 11.7909 5.46927e-08 9.36599ZM2.745 9.36599C2.745 10.6318 3.12037 11.8692 3.82361 12.9216C4.52685 13.9741 5.52635 14.7944 6.6958 15.2788C7.86525 15.7632 9.15208 15.89 10.3936 15.643C11.635 15.3961 12.7755 14.7865 13.6705 13.8915C14.5656 12.9964 15.1751 11.8561 15.422 10.6146C15.6689 9.37309 15.5423 8.08626 15.0579 6.91682C14.5735 5.74737 13.7532 4.74784 12.7007 4.04459C11.6482 3.34135 10.4108 2.966 9.14502 2.966C7.44837 2.96838 5.82191 3.64343 4.62219 4.84315C3.42248 6.04286 2.74738 7.66934 2.745 9.36599Z" fill="white"/>
</g>
</svg>
