<svg width="14" height="9" viewBox="0 0 14 9" fill="none" xmlns="http://www.w3.org/2000/svg">
<g id="MAIL">
<g id="MAIL_2">
<g id="Group 1420">
<path id="Path 1920" d="M0.827942 0.0248775L6.99994 6.38288L12.8639 -0.00012207H1.05294C0.977282 0.000450888 0.901882 0.00882819 0.827942 0.0248775Z" fill="#010002"/>
<path id="Path 1921" d="M3.18694 5.3709L0.404939 8.7809C0.590725 8.92305 0.81801 9.00034 1.05194 9.0009H12.9469C13.1608 9.00073 13.3697 8.93666 13.5469 8.8169L10.7379 5.3709L11.4689 4.8199L13.9989 7.9199V1.0129C13.9975 0.777767 13.9117 0.550971 13.7569 0.373901L7.01594 7.7119L0.099939 0.585902C0.0344452 0.718735 0.000237643 0.864801 -6.10352e-05 1.0129L-6.10352e-05 7.8299L2.45694 4.8199L3.18694 5.3709Z" fill="#010002"/>
</g>
</g>
<path id="Color Overlay" d="M1.05292 8.99988C0.818823 8.99945 0.591329 8.92255 0.404968 8.78088L3.18695 5.37097L2.45593 4.81995L-6.10352e-05 7.82996V1.01184C0.00020218 0.863736 0.0343871 0.71766 0.0999146 0.584839L7.01392 7.71179L13.7559 0.372925C13.9111 0.549804 13.9974 0.776561 13.999 1.01184V7.9198L11.468 4.81995L10.7369 5.37195L13.5479 8.81799C13.3707 8.9377 13.1618 9.0016 12.9479 9.00183L1.05292 8.99988ZM0.827942 0.0238037C0.901892 0.00793267 0.977283 -3.74136e-05 1.05292 -0.00012207H12.861L6.99994 6.38293L0.827942 0.0238037Z" fill="white"/>
</g>
</svg>
