<svg width="170" height="40" viewBox="0 0 170 40" fill="none" xmlns="http://www.w3.org/2000/svg">
<g id="Objeto inteligente vectorial">
<g id="Group 1411">
<g id="Group 1410">
<g id="Group 1406">
<path id="Path 1876" d="M47.5598 28.8249L48.9058 28.7249C50.3628 28.5839 50.3628 28.4049 50.3628 24.1129V11.8509C50.3628 7.55091 50.3628 7.37791 48.9058 7.23991L47.5598 7.13291V6.35791H57.3198C60.8678 6.35791 66.4148 6.88591 66.4148 12.6949C66.4148 17.4839 60.7328 19.7039 57.2148 19.7039H56.5818V18.9329C58.1888 18.9329 62.4908 18.2329 62.4908 12.9099C62.4908 8.79091 59.5378 7.51991 56.1648 7.51991C55.3854 7.54268 54.6098 7.63741 53.8478 7.80291V24.1089C53.8478 28.4009 53.8478 28.5809 55.9008 28.7209L57.2508 28.8209V29.5939H47.5648L47.5598 28.8249Z" fill="white"/>
<path id="Path 1877" d="M66.0967 20.3979C66.0967 14.2789 71.1207 10.4829 76.9247 10.4829C82.4587 10.4829 87.1247 13.7999 87.1247 20.0829C87.1247 26.3109 82.3137 30.0219 76.3567 30.0219C70.3997 30.0219 66.0967 26.5119 66.0967 20.3979ZM76.9247 29.0909C82.0347 29.0909 83.9677 24.9549 83.9677 20.8199C83.9677 15.4709 81.1397 11.4199 76.4107 11.4199C71.8957 11.4199 69.2517 14.9589 69.2517 19.8579C69.2527 25.6329 72.3887 29.0919 76.9247 29.0919V29.0909Z" fill="white"/>
<path id="Path 1878" d="M96.2229 18.8719C98.6019 20.1389 101.07 21.3309 101.07 24.7329C101.07 28.5539 97.3059 30.0259 94.1189 30.0259C92.4719 30.0877 90.8396 29.6962 89.3999 28.8939C88.7499 27.312 88.4198 25.617 88.4289 23.9069L89.3999 23.6819C89.7259 25.7199 90.8379 29.0919 94.9619 29.0919C95.4344 29.1302 95.9096 29.0674 96.3559 28.9075C96.8022 28.7477 97.2093 28.4945 97.55 28.1649C97.8906 27.8353 98.1571 27.4368 98.3316 26.996C98.5061 26.5553 98.5846 26.0824 98.5619 25.6089C98.5619 23.5429 96.7239 22.1269 94.3859 21.1329L92.4589 20.1399C91.5314 19.7176 90.7347 19.0532 90.1526 18.2167C89.5706 17.3802 89.2245 16.4023 89.1509 15.3859C89.1509 11.9279 92.2189 10.4859 95.4109 10.4859C96.8463 10.4443 98.27 10.7557 99.5569 11.3929C99.7692 12.6855 99.8696 13.994 99.8569 15.3039H99.0999C98.7999 13.8899 98.3229 11.4219 94.9209 11.4219C94.5006 11.3995 94.0801 11.4627 93.6849 11.6077C93.2898 11.7526 92.9281 11.9763 92.6219 12.2651C92.3157 12.5539 92.0713 12.9018 91.9036 13.2879C91.7358 13.6739 91.6482 14.09 91.6459 14.5109C91.6459 16.1789 92.9459 17.0879 94.5599 17.9909L96.2229 18.8719Z" fill="white"/>
<path id="Path 1879" d="M101.169 28.9769L102.252 28.8939C103.422 28.7809 103.422 28.6359 103.422 25.1849V15.3329C103.422 11.8779 103.422 11.7329 102.252 11.6219L101.169 11.5359V10.9109H108.475V11.5329L107.394 11.6189C106.219 11.7329 106.219 11.8749 106.219 15.3299V25.1839C106.219 28.6339 106.219 28.7839 107.394 28.8929L108.475 28.9759V29.5979H101.169V28.9769Z" fill="white"/>
<path id="Path 1880" d="M114.425 28.977L115.542 28.894C117.195 28.781 117.195 28.636 117.195 25.185V11.707H115.629C111.389 11.707 111.329 12.125 110.663 15.407H109.94C109.94 15.298 109.882 14.533 109.882 14.164C109.894 13.0706 110.005 11.9806 110.213 10.907H126.969C127.173 11.9809 127.283 13.0708 127.296 14.164C127.296 14.533 127.232 15.298 127.232 15.407H126.514C125.85 12.122 125.794 11.707 121.555 11.707H119.992V25.185C119.992 28.635 119.992 28.785 121.669 28.894L122.755 28.977V29.599H114.424L114.425 28.977Z" fill="white"/>
<path id="Path 1881" d="M128.354 28.9769L129.434 28.8939C130.606 28.7809 130.606 28.6359 130.606 25.1849V15.3329C130.606 11.8779 130.606 11.7329 129.434 11.6219L128.354 11.5359V10.9109H135.662V11.5329L134.582 11.6189C133.41 11.7329 133.41 11.8749 133.41 15.3299V25.1839C133.41 28.6339 133.41 28.7839 134.582 28.8929L135.662 28.9759V29.5979H128.354V28.9769Z" fill="white"/>
<path id="Path 1882" d="M139.181 13.8C138.731 12.752 138.399 11.707 137.411 11.62L136.533 11.534V10.909H144.021V11.533L143.095 11.619C142.607 11.674 141.734 11.761 141.734 12.326C141.829 12.715 141.963 13.0935 142.134 13.456L147.34 26.086C148.028 24.386 152.756 13.375 152.756 12.495C152.756 11.925 152.149 11.788 151.576 11.706L150.225 11.533V10.908H156.725V11.533L155.935 11.706C155.599 11.7655 155.288 11.9223 155.041 12.157C154.372 12.777 153.414 15.499 152.66 16.857L150.619 21.499C148.897 25.407 147.395 28.865 147.119 29.599C146.798 29.7847 146.454 29.9282 146.096 30.026L139.181 13.8Z" fill="white"/>
<path id="Path 1883" d="M150.121 28.9769L150.693 28.8939C151.84 28.7209 151.993 28.4139 152.707 26.7719L158.962 12.4409C159.207 11.8769 159.446 11.3049 159.691 10.7679L160.566 10.4839L167.266 26.8839C167.716 28.0169 168.022 28.6699 168.803 28.8109L170.003 28.9809V29.6029H162.547V28.9809L163.904 28.7549C164.449 28.6689 164.833 28.5279 164.833 28.2159C164.801 28.0089 164.741 27.8071 164.656 27.6159L162.547 22.2689C161.445 22.0749 160.328 21.9792 159.209 21.9829C158.151 21.993 157.095 22.0886 156.053 22.2689L154.517 26.2049C154.245 26.8111 154.043 27.4466 153.917 28.0989C153.917 28.6359 154.307 28.7219 154.641 28.7509L156.441 28.9769V29.5989H150.124L150.121 28.9769ZM156.438 21.1899C157.346 21.1319 158.274 21.0489 159.181 21.0489C160.144 21.0392 161.106 21.0863 162.064 21.1899L159.296 14.3329L156.438 21.1899Z" fill="white"/>
</g>
<g id="Group 1409">
<g id="Group 1408">
<g id="Group 1407">
<path id="Path 1884" d="M65.6368 36.9999C65.5782 37.6257 65.4209 38.2382 65.1708 38.8149C64.422 39.087 63.6305 39.2225 62.8338 39.2149C60.6728 39.2149 58.6228 38.2659 58.6228 35.5539C58.6228 32.7059 61.0648 31.8539 62.8568 31.8539C63.6512 31.826 64.4418 31.976 65.1708 32.2929C65.2893 32.8112 65.35 33.3411 65.3518 33.8729L65.0398 33.9359C65.017 33.675 64.9411 33.4217 64.8167 33.1913C64.6924 32.9609 64.5223 32.7583 64.3168 32.5961C64.1113 32.4339 63.8748 32.3154 63.6218 32.248C63.3689 32.1805 63.1048 32.1655 62.8458 32.2039C62.4299 32.1747 62.0127 32.2373 61.6237 32.3871C61.2346 32.5369 60.8832 32.7703 60.5943 33.0709C60.3054 33.3714 60.086 33.7318 59.9516 34.1264C59.8173 34.5211 59.7713 34.9404 59.8168 35.3549C59.8168 37.1799 60.7498 38.8669 62.8108 38.8669C64.6938 38.8669 64.9688 37.7909 65.3338 36.9339L65.6368 36.9999Z" fill="white"/>
<path id="Path 1885" d="M66.0078 36.2709C66.0149 35.855 66.1067 35.4449 66.2776 35.0657C66.4485 34.6865 66.6949 34.3461 67.0018 34.0653C67.3087 33.7846 67.6696 33.5693 68.0625 33.4327C68.4553 33.2961 68.872 33.2411 69.2868 33.2709C69.6866 33.2359 70.0893 33.2856 70.4685 33.4169C70.8477 33.5481 71.195 33.758 71.4876 34.0326C71.7802 34.3073 72.0115 34.6406 72.1665 35.0108C72.3214 35.381 72.3965 35.7797 72.3868 36.1809C72.389 36.5991 72.3039 37.0132 72.1369 37.3966C71.9699 37.7801 71.7247 38.1245 71.417 38.4078C71.1093 38.6911 70.7459 38.907 70.35 39.0419C69.9541 39.1767 69.5344 39.2275 69.1178 39.1909C68.7154 39.2323 68.3088 39.1868 67.9255 39.0574C67.5422 38.928 67.1912 38.7177 66.8963 38.4408C66.6014 38.1639 66.3694 37.8268 66.2161 37.4524C66.0628 37.0781 65.9918 36.6751 66.0078 36.2709ZM69.2868 38.9079C70.8398 38.9079 71.4248 37.6549 71.4248 36.4009C71.4248 34.7779 70.5618 33.5499 69.1348 33.5499C67.7598 33.5499 66.9608 34.6219 66.9608 36.1089C66.9618 37.8569 67.9168 38.9079 69.2868 38.9079Z" fill="white"/>
<path id="Path 1886" d="M72.8857 38.8738L73.1147 38.8208C73.216 38.8092 73.3134 38.7751 73.3997 38.7208C73.5524 38.2666 73.6232 37.7888 73.6087 37.3098L73.7547 35.1428C73.7907 34.5588 73.8547 33.6328 73.8547 33.3978L74.1057 33.3208C74.3767 33.7688 76.4568 37.4668 76.7408 37.9408C77.0338 37.5048 79.0787 33.8408 79.2467 33.3968L79.4857 33.3198C79.4857 33.3908 79.5457 34.3508 79.6137 35.4858L79.6987 36.9688C79.6971 37.5375 79.7544 38.1049 79.8698 38.6618C79.9129 38.7115 79.966 38.7515 80.0256 38.7792C80.0852 38.8069 80.15 38.8218 80.2157 38.8228L80.4868 38.8758V39.0668H78.1467V38.8758L78.5078 38.8228C78.8948 38.7808 78.9327 38.6448 78.9327 38.2468C78.9327 37.2948 78.7838 35.4908 78.7838 34.9468H78.7607C78.6097 35.3248 77.6777 37.0028 76.7737 38.6758C76.7337 38.7588 76.6908 38.8688 76.6458 38.9538L76.3918 39.0678C76.1828 38.6678 75.0277 36.5748 74.3977 35.4458C74.3097 35.2808 74.2357 35.1148 74.1567 34.9458H74.1387C74.1087 35.4348 73.9827 37.8588 73.9827 38.1278C73.9827 38.6378 73.9827 38.7818 74.4137 38.8278L74.7697 38.8808V39.0718H72.8857V38.8738Z" fill="white"/>
<path id="Path 1887" d="M80.8988 38.8738L81.2358 38.8468C81.5848 38.8138 81.5848 38.7698 81.5848 37.7238V34.7328C81.5848 33.6908 81.5848 33.6448 81.2358 33.6088L80.8988 33.5858V33.3938H83.2898C84.1528 33.3938 85.4948 33.5218 85.4948 34.9428C85.4948 36.1088 84.1138 36.6488 83.2568 36.6488H83.0998V36.4618C83.2942 36.4725 83.4887 36.4417 83.6703 36.3714C83.8519 36.3011 84.0164 36.1928 84.1528 36.0539C84.2893 35.915 84.3946 35.7486 84.4616 35.5658C84.5287 35.383 84.5561 35.188 84.5418 34.9938C84.5418 33.9888 83.8188 33.6808 83.0038 33.6808C82.813 33.6856 82.6231 33.709 82.4368 33.7508V37.7228C82.4368 38.7698 82.4368 38.8128 82.9368 38.8458L83.2648 38.8728V39.0638H80.8928L80.8988 38.8738Z" fill="white"/>
<path id="Path 1888" d="M84.9727 38.8738L85.1497 38.8468C85.4957 38.7978 85.5407 38.7038 85.7637 38.2048L87.6637 33.8588C87.7397 33.6918 87.8087 33.5168 87.8847 33.3588L88.1507 33.2708L90.1777 38.2418C90.3177 38.5868 90.4067 38.7838 90.6487 38.8258L91.0157 38.8787V39.0698H88.7467V38.8787L89.1547 38.8088C89.3197 38.7838 89.4427 38.7398 89.4427 38.6478C89.4322 38.5853 89.4137 38.5245 89.3877 38.4668L88.7467 36.8328C88.4122 36.7749 88.0732 36.7471 87.7337 36.7498C87.4133 36.7517 87.0936 36.7794 86.7777 36.8328L86.3087 38.0247C86.2273 38.2102 86.1653 38.4036 86.1237 38.6018C86.1237 38.7648 86.2477 38.7928 86.3487 38.8018L86.8907 38.8717V39.0628H84.9707L84.9727 38.8738ZM86.8927 36.5138C87.1647 36.4988 87.4507 36.4708 87.7247 36.4708C88.018 36.4681 88.3111 36.4824 88.6027 36.5138L87.7617 34.4338L86.8927 36.5138Z" fill="white"/>
<path id="Path 1889" d="M90.8467 38.8739L91.1707 38.8469C91.5277 38.8219 91.5977 38.5579 91.5977 37.6329V33.3939L91.7977 33.3169C92.5517 34.2309 95.2537 36.8539 96.2377 37.7739V34.8329C96.2377 33.8919 96.2377 33.6549 95.7377 33.6129L95.4137 33.5899V33.3979H97.3787V33.5899L97.0577 33.6129C96.7247 33.6419 96.6637 33.9079 96.6637 34.8329V39.0679L96.4547 39.1449C96.2547 38.9449 95.6927 38.3769 94.7477 37.4609L92.0077 34.7369V37.6369C92.0077 38.5769 92.0077 38.8089 92.4787 38.8509L92.8157 38.8779V39.0689H90.8467V38.8739ZM92.8467 32.6229C92.9567 32.4529 93.2857 31.9029 93.7697 31.9029C93.9944 31.9195 94.2146 31.9746 94.4207 32.0659C94.6449 32.1616 94.8835 32.2191 95.1267 32.2359C95.3827 32.2359 95.5547 31.9719 95.6267 31.8799L95.7417 31.9799C95.6417 32.1869 95.3827 32.6939 94.8767 32.6939C94.4407 32.6939 93.8287 32.3599 93.5227 32.3599C93.2637 32.3599 93.0667 32.6239 92.9767 32.7349L92.8467 32.6229Z" fill="white"/>
<path id="Path 1890" d="M97.8037 38.8738L98.1307 38.8468C98.4877 38.8138 98.4877 38.7698 98.4877 37.7238V34.7328C98.4877 33.6908 98.4877 33.6448 98.1307 33.6088L97.8037 33.5858V33.3938H100.021V33.5858L99.6907 33.6088C99.3307 33.6458 99.3307 33.6908 99.3307 34.7328V37.7228C99.3307 38.7698 99.3307 38.8128 99.6907 38.8458L100.021 38.8728V39.0638H97.8037V38.8738Z" fill="white"/>
<path id="Path 1891" d="M100.03 38.8738L100.203 38.8468C100.552 38.7978 100.603 38.7038 100.815 38.2048L102.715 33.8588C102.787 33.6918 102.857 33.5168 102.938 33.3588L103.199 33.2708L105.235 38.2418C105.371 38.5868 105.459 38.7838 105.693 38.8258L106.061 38.8787V39.0698H103.805V38.8787L104.218 38.8088C104.376 38.7838 104.493 38.7398 104.493 38.6478C104.484 38.585 104.466 38.5239 104.439 38.4668L103.805 36.8418C103.469 36.7844 103.128 36.7566 102.787 36.7588C102.466 36.7608 102.147 36.7886 101.831 36.8418L101.363 38.0338C101.282 38.2189 101.223 38.4125 101.185 38.6108C101.185 38.7738 101.302 38.8018 101.4 38.8108L101.952 38.8808V39.0718H100.033L100.03 38.8738ZM101.949 36.5138C102.215 36.4988 102.504 36.4708 102.776 36.4708C103.068 36.468 103.36 36.4823 103.651 36.5138L102.821 34.4338L101.949 36.5138Z" fill="white"/>
<path id="Path 1892" d="M108.093 38.9078L108.36 38.8808C108.652 38.8558 108.652 38.8218 108.652 37.9498V35.4758C108.652 34.6078 108.652 34.5688 108.36 34.5408L108.093 34.5188V34.3628H110.564C112.191 34.3628 113.154 35.1628 113.154 36.5408C113.154 38.3928 111.696 39.0648 110.115 39.0648H108.093V38.9078ZM109.357 38.7268C109.64 38.7854 109.928 38.8189 110.217 38.8268C110.504 38.8642 110.796 38.8357 111.071 38.7435C111.345 38.6512 111.595 38.4976 111.802 38.2944C112.008 38.0911 112.166 37.8435 112.262 37.5703C112.359 37.2972 112.392 37.0056 112.359 36.7178C112.391 36.4233 112.355 36.1253 112.254 35.8468C112.153 35.5683 111.989 35.3168 111.775 35.1117C111.562 34.9065 111.304 34.7532 111.021 34.6636C110.739 34.574 110.44 34.5504 110.147 34.5948C109.882 34.6028 109.618 34.6275 109.357 34.6688V38.7268Z" fill="white"/>
<path id="Path 1893" d="M113.724 38.9078L113.992 38.8808C114.292 38.8558 114.292 38.8218 114.292 37.9498V35.4758C114.292 34.6078 114.292 34.5688 113.992 34.5408L113.724 34.5188V34.3628H116.979C117.029 34.6111 117.056 34.8635 117.059 35.1168C117.059 35.2818 117.044 35.3418 117.044 35.3998L116.867 35.4328C116.7 34.6708 116.681 34.5648 115.614 34.5648H114.988V36.5208H115.665C116.253 36.5208 116.385 36.5138 116.433 36.2208L116.469 35.9778H116.669V37.2588H116.469L116.433 37.0178C116.386 36.7258 116.253 36.7178 115.665 36.7178H114.988V38.7678C115.257 38.8236 115.531 38.8548 115.806 38.8608C117.016 38.8608 117.096 38.4328 117.242 37.8508L117.43 37.8768C117.406 38.2822 117.322 38.6818 117.181 39.0628H113.724V38.9078Z" fill="white"/>
<path id="Path 1894" d="M122.809 35.0179C123.7 35.4969 124.632 35.9469 124.632 37.2259C124.632 38.6679 123.214 39.2199 122.012 39.2199C121.391 39.2415 120.777 39.0928 120.235 38.7899C119.989 38.1961 119.864 37.5594 119.868 36.9169L120.235 36.8259C120.252 37.372 120.481 37.89 120.873 38.271C121.264 38.652 121.788 38.8663 122.335 38.8689C122.513 38.8832 122.693 38.8594 122.861 38.7992C123.03 38.7389 123.184 38.6435 123.313 38.5192C123.442 38.395 123.543 38.2448 123.609 38.0785C123.676 37.9123 123.706 37.7338 123.699 37.5549C123.699 36.7769 123.006 36.2449 122.118 35.8699L121.395 35.4959C121.045 35.3373 120.744 35.0873 120.524 34.7724C120.304 34.4574 120.173 34.089 120.145 33.7059C120.145 32.3989 121.308 31.8559 122.502 31.8559C123.045 31.8388 123.584 31.957 124.071 32.1999C124.15 32.6868 124.187 33.1796 124.182 33.6729H123.898C123.788 33.1369 123.612 32.2059 122.323 32.2059C122.164 32.1978 122.006 32.2218 121.857 32.2766C121.708 32.3313 121.571 32.4157 121.456 32.5245C121.34 32.6333 121.248 32.7644 121.184 32.9099C121.121 33.0553 121.087 33.2121 121.086 33.3709C121.086 34.0029 121.577 34.3429 122.186 34.6859L122.809 35.0179Z" fill="white"/>
<path id="Path 1895" d="M125.185 38.8738L125.515 38.8468C125.871 38.8138 125.871 38.7698 125.871 37.7238V34.7328C125.871 33.6908 125.871 33.6448 125.515 33.6088L125.185 33.5858V33.3938H129.121C129.183 33.6946 129.216 34.0007 129.221 34.3078C129.221 34.5078 129.199 34.5698 129.199 34.6508L128.981 34.6828C128.781 33.7658 128.765 33.6378 127.481 33.6378H126.721V35.9958H127.53C128.24 35.9958 128.406 35.9878 128.457 35.6368L128.501 35.3448H128.742V36.8888H128.501L128.457 36.6008C128.406 36.2468 128.24 36.2378 127.53 36.2378H126.721V38.7118C127.048 38.7782 127.381 38.8153 127.715 38.8228C129.158 38.8228 129.255 38.3068 129.434 37.6048L129.663 37.6378C129.633 38.1258 129.532 38.6069 129.363 39.0658H125.186L125.185 38.8738Z" fill="white"/>
<path id="Path 1896" d="M135.86 38.7557C135.129 39.0212 134.361 39.1667 133.584 39.1867C131.747 39.1867 130.109 38.4337 130.109 36.2457C130.109 33.9547 132.072 33.2657 133.509 33.2657C134.147 33.2437 134.782 33.3647 135.367 33.6197C135.461 34.0366 135.509 34.4624 135.511 34.8897L135.263 34.9427C135.244 34.7329 135.183 34.5292 135.082 34.344C134.982 34.1588 134.845 33.996 134.679 33.8656C134.514 33.7352 134.324 33.6399 134.12 33.5856C133.917 33.5313 133.704 33.5191 133.496 33.5497C133.162 33.5268 132.827 33.5774 132.515 33.698C132.203 33.8186 131.921 34.0063 131.689 34.2478C131.458 34.4893 131.282 34.7787 131.174 35.0956C131.067 35.4125 131.03 35.7491 131.067 36.0817C131.027 36.4412 131.063 36.8051 131.175 37.1491C131.286 37.4932 131.47 37.8095 131.714 38.0769C131.957 38.3443 132.255 38.5566 132.587 38.6997C132.919 38.8428 133.278 38.9134 133.64 38.9067C134.001 38.9084 134.361 38.8712 134.714 38.7957V38.4757C134.714 37.4287 134.714 37.3857 134.073 37.3497L133.747 37.3327V37.1427H136.063V37.3327L135.732 37.3547C135.56 37.3917 135.56 37.4347 135.56 38.2657C135.56 38.5217 135.56 38.5767 135.708 38.5767H135.803L135.86 38.7557Z" fill="white"/>
<path id="Path 1897" d="M141.473 38.8908C141.343 38.7698 141.273 38.6508 141.131 38.6508C140.478 38.9794 139.761 39.1622 139.031 39.1868C137.147 39.1868 136.994 38.1698 136.994 36.9998V34.7328C136.994 33.6908 136.994 33.6448 136.64 33.6088L136.304 33.5858V33.3938H138.515V33.5858L138.196 33.6088C137.844 33.6458 137.844 33.6908 137.844 34.7328V36.8628C137.844 38.0898 138.061 38.9078 139.466 38.9078C139.773 38.9115 140.079 38.8528 140.363 38.7352C140.648 38.6177 140.905 38.4437 141.121 38.2238V34.7328C141.121 33.6908 141.121 33.6448 140.768 33.6088L140.438 33.5858V33.3938H142.651V33.5858L142.327 33.6088C141.97 33.6458 141.97 33.6908 141.97 34.7328V39.0638L141.696 39.1408L141.473 38.8908Z" fill="white"/>
<path id="Path 1898" d="M143.123 38.8738L143.444 38.8468C143.803 38.8138 143.803 38.7698 143.803 37.7238V34.7328C143.803 33.6908 143.803 33.6448 143.444 33.6088L143.123 33.5858V33.3938H145.498C146.372 33.3938 147.588 33.5158 147.588 34.8228C147.588 35.6228 146.833 36.0908 146.332 36.3148C146.464 36.5528 146.774 37.1038 147.011 37.5148C147.263 37.9994 147.608 38.4301 148.025 38.7828C148.17 38.8463 148.328 38.8757 148.486 38.8688V39.0598H147.786C147.512 39.0478 147.246 38.9614 147.017 38.8099C146.788 38.6585 146.604 38.4476 146.486 38.1998L146.118 37.5338C145.966 37.2336 145.777 36.9532 145.557 36.6988C145.385 36.6032 145.187 36.5637 144.991 36.5858H144.647V37.7228C144.647 38.7698 144.647 38.8128 144.991 38.8458L145.32 38.8728V39.0638H143.12L143.123 38.8738ZM144.652 36.3498H145.17C145.358 36.3731 145.549 36.3549 145.73 36.2965C145.91 36.238 146.076 36.1408 146.215 36.0116C146.354 35.8823 146.463 35.7243 146.534 35.5484C146.605 35.3726 146.637 35.1833 146.628 34.9938C146.64 34.8101 146.612 34.6259 146.544 34.4546C146.477 34.2833 146.372 34.1291 146.237 34.0034C146.103 33.8777 145.942 33.7835 145.767 33.7277C145.591 33.6719 145.405 33.6559 145.223 33.6808C145.03 33.6858 144.839 33.7092 144.651 33.7508L144.652 36.3498Z" fill="white"/>
<path id="Path 1899" d="M148.347 36.2709C148.354 35.8554 148.446 35.4457 148.616 35.0669C148.787 34.688 149.033 34.3479 149.34 34.0672C149.646 33.7865 150.006 33.5712 150.399 33.4343C150.791 33.2973 151.207 33.2418 151.622 33.2709C152.021 33.2355 152.424 33.285 152.803 33.4162C153.182 33.5474 153.529 33.7573 153.821 34.0321C154.113 34.3069 154.344 34.6405 154.498 35.0108C154.652 35.3811 154.727 35.7799 154.716 36.1809C154.719 36.5982 154.634 37.0115 154.469 37.3944C154.303 37.7773 154.059 38.1214 153.752 38.4047C153.446 38.688 153.084 38.9042 152.689 39.0396C152.294 39.175 151.875 39.2265 151.46 39.1909C151.057 39.2318 150.651 39.1859 150.268 39.0563C149.884 38.9267 149.533 38.7164 149.238 38.4397C148.943 38.163 148.711 37.8262 148.557 37.452C148.403 37.0779 148.332 36.6751 148.347 36.2709ZM151.622 38.9079C153.187 38.9079 153.762 37.6549 153.762 36.4009C153.762 34.7779 152.908 33.5499 151.469 33.5499C150.11 33.5499 149.311 34.6219 149.311 36.1089C149.31 37.8569 150.247 38.9079 151.621 38.9079H151.622Z" fill="white"/>
<path id="Path 1900" d="M157.689 35.8078C158.413 36.1938 159.159 36.5528 159.159 37.5868C159.159 38.7448 158.017 39.1868 157.05 39.1868C156.552 39.2074 156.059 39.0897 155.625 38.8468C155.427 38.3689 155.325 37.8569 155.325 37.3398L155.625 37.2678C155.64 37.7065 155.824 38.1223 156.139 38.4281C156.454 38.734 156.875 38.9063 157.314 38.9088C157.457 38.9202 157.601 38.901 157.736 38.8523C157.872 38.8036 157.995 38.7266 158.098 38.6265C158.201 38.5264 158.282 38.4054 158.335 38.2716C158.387 38.1379 158.411 37.9944 158.404 37.8508C158.404 37.2268 157.843 36.7978 157.134 36.4988L156.549 36.1988C156.268 36.0701 156.027 35.8683 155.851 35.6147C155.675 35.361 155.571 35.0647 155.549 34.7568C155.549 33.7118 156.482 33.2708 157.449 33.2708C157.883 33.2586 158.315 33.3526 158.705 33.5448C158.765 33.9379 158.793 34.3352 158.788 34.7328H158.568C158.478 34.3018 158.334 33.5548 157.307 33.5548C157.179 33.5467 157.051 33.5647 156.93 33.6078C156.81 33.6509 156.699 33.7182 156.605 33.8056C156.512 33.893 156.437 33.9986 156.386 34.1159C156.334 34.2332 156.307 34.3598 156.307 34.4878C156.307 34.9978 156.693 35.2708 157.185 35.5478L157.689 35.8078Z" fill="white"/>
</g>
</g>
</g>
</g>
<path id="Path 1901" d="M20.6728 0.219971C9.25378 0.219971 -0.0012207 8.93197 -0.0012207 19.68C-0.0012207 30.428 9.25278 39.141 20.6728 39.141C32.0928 39.141 41.3468 30.425 41.3468 19.68C41.3468 8.93497 32.0878 0.219971 20.6728 0.219971ZM20.3828 8.30697C21.0643 8.79228 21.7124 9.3228 22.3228 9.89497C22.4558 10.008 22.5818 10.144 23.0548 9.99497C24.6001 9.36738 26.2012 8.88724 27.8368 8.56097C28.0716 8.49327 28.3205 8.49122 28.5564 8.55504C28.7922 8.61886 29.0061 8.74612 29.1748 8.92297C29.8651 9.44395 30.5214 10.0084 31.1398 10.613C30.2927 10.6821 29.4513 10.8098 28.6218 10.995L28.4558 11.036L28.4188 11.043C28.1845 11.0797 27.9645 11.179 27.782 11.3303C27.5995 11.4817 27.4612 11.6795 27.3818 11.903C27.3482 12.0128 27.3313 12.1271 27.3318 12.242C27.3415 12.5316 27.4471 12.8097 27.6318 13.033C27.9349 13.4745 28.2001 13.9408 28.4248 14.427C27.0879 14.8142 25.7715 15.2691 24.4808 15.79C24.2627 15.8766 24.0687 16.0147 23.9155 16.1925C23.7623 16.3703 23.6543 16.5825 23.6008 16.811C23.5789 16.8972 23.5692 16.9861 23.5718 17.075C23.5756 17.2671 23.6179 17.4565 23.6965 17.6319C23.775 17.8074 23.888 17.9652 24.0288 18.096C25.5972 19.9362 26.4534 22.2781 26.4418 24.696C26.4414 25.3286 26.3743 25.9594 26.2418 26.578C25.6088 29.545 23.4868 31.804 19.9418 33.299C18.1591 33.9991 16.2441 34.2985 14.3328 34.176C14.4328 34.166 14.5328 34.154 14.6478 34.147C18.2038 33.738 20.7098 32.575 22.4388 29.674C24.8298 25.674 23.0208 20.768 19.4278 17.981C18.37 17.2223 17.2576 16.5428 16.0998 15.948C15.8178 15.786 15.6528 15.548 16.0148 15.143C16.9178 13.9151 17.996 12.8262 19.2148 11.911C19.5538 11.691 19.4148 11.511 19.2618 11.324C18.7362 10.898 18.174 10.5192 17.5818 10.192C17.1908 10.013 17.0378 9.81697 17.3398 9.55697C18.0154 8.98438 18.7902 8.54039 19.6258 8.24697C19.7428 8.1781 19.8782 8.14682 20.0136 8.15737C20.149 8.16793 20.2778 8.2198 20.3828 8.30597V8.30697ZM6.92679 11.77C7.37 10.9165 7.89299 10.1069 8.48878 9.35197C8.55175 9.25952 8.64391 9.19086 8.7505 9.15696C8.8571 9.12306 8.97199 9.12588 9.0768 9.16497C9.6578 9.25297 10.6898 9.66497 12.0278 10.015C12.1312 10.0611 12.2473 10.0702 12.3566 10.0407C12.4659 10.0112 12.5617 9.94488 12.6278 9.85297C13.9417 8.5807 15.5063 7.59612 17.2218 6.96197C17.5479 6.84479 17.9069 6.86023 18.2218 7.00497C18.5218 7.14397 18.8588 7.27997 19.2528 7.46497C18.4189 7.79354 17.6456 8.25893 16.9648 8.84197C16.8125 8.95908 16.6884 9.10896 16.6019 9.2805C16.5153 9.45205 16.4685 9.64086 16.4648 9.83297C16.4648 9.89497 16.4648 9.95197 16.4708 10.002C16.5213 10.2392 16.63 10.4602 16.7871 10.6451C16.9442 10.8299 17.1448 10.9728 17.3708 11.061L17.4448 11.1C17.419 11.0892 17.3942 11.0761 17.3708 11.061C17.6845 11.2351 17.9893 11.425 18.2838 11.63C17.236 12.4902 16.3 13.4782 15.4978 14.571C15.3438 14.7339 15.2279 14.9291 15.1587 15.1424C15.0895 15.3556 15.0687 15.5816 15.0978 15.804C15.1451 16.0224 15.2417 16.2271 15.3804 16.4023C15.5191 16.5776 15.6961 16.7187 15.8978 16.815L16.4658 17.136C17.381 17.6118 18.2579 18.1577 19.0888 18.769C22.1438 21.141 24.0778 25.483 21.8508 29.209C20.3508 31.709 18.1988 32.988 14.8508 33.371C13.6908 33.5041 12.5163 33.431 11.3818 33.155C11.8384 33.2093 12.298 33.2341 12.7578 33.229C15.2878 33.186 17.9308 32.365 19.3068 30.329C22.7568 25.229 18.7988 19.948 13.4378 18.28C11.8727 17.8257 10.2735 17.4986 8.65578 17.302C8.07478 17.235 7.9378 17.066 8.1158 16.694C8.70683 15.4532 9.4034 14.2655 10.1978 13.144C10.2478 13.074 10.2228 12.894 9.99779 12.836C9.09128 12.5864 8.17194 12.3861 7.24379 12.236C6.91279 12.186 6.79079 12.033 6.92679 11.77ZM23.5118 37.194C20.186 37.7608 16.7695 37.4384 13.6085 36.2595C10.4475 35.0806 7.65421 33.0871 5.51178 30.481C8.25178 32.981 12.9118 37.029 19.9678 33.96C30.2258 29.643 27.1958 19.998 24.3978 17.172C24.3332 17.1294 24.2824 17.0689 24.2515 16.998C24.2206 16.9271 24.2109 16.8488 24.2236 16.7725C24.2363 16.6962 24.2709 16.6252 24.3231 16.5682C24.3753 16.5111 24.4429 16.4704 24.5178 16.451C26.0268 15.8383 27.5737 15.3233 29.1488 14.909C29.3488 14.853 29.3758 14.763 29.2788 14.534C29.0083 13.7231 28.6198 12.9565 28.1258 12.259C27.8598 11.987 27.9788 11.829 28.2668 11.759C29.1932 11.5368 30.1364 11.392 31.0868 11.326C31.195 11.3033 31.3075 11.3125 31.4106 11.3524C31.5137 11.3924 31.6031 11.4613 31.6678 11.551C32.13 12.3521 32.5029 13.2015 32.7798 14.084C32.8113 14.1633 32.8625 14.2333 32.9287 14.2872C32.9949 14.3411 33.0737 14.3772 33.1578 14.392C34.8628 14.3999 36.5658 14.5091 38.2578 14.719C38.3484 14.7396 38.4337 14.7787 38.5086 14.8337C38.5834 14.8888 38.6461 14.9586 38.6928 15.039C39.6158 19.1372 39.1769 23.4247 37.4428 27.251C34.5538 33.778 28.9538 36.414 23.5118 37.194Z" fill="white"/>
</g>
</g>
</svg>
