<svg width="83" height="85" viewBox="0 0 83 85" fill="none" xmlns="http://www.w3.org/2000/svg">
<g id="Objeto inteligente vectorial">
<g id="Objeto inteligente vectorial_2">
<g id="Group 1454">
<path id="Path 1958" d="M41.498 84.22C18.616 84.22 -0.00195312 65.379 -0.00195312 42.22C-0.00195312 19.061 18.614 0.219971 41.498 0.219971C64.382 0.219971 82.998 19.062 82.998 42.22C82.998 65.378 64.382 84.22 41.498 84.22ZM41.498 1.15297C19.123 1.15297 0.923042 19.576 0.923042 42.22C0.923042 64.864 19.123 83.287 41.499 83.287C63.875 83.287 82.078 64.865 82.078 42.22C82.078 19.575 63.874 1.15297 41.498 1.15297Z" fill="#211915"/>
</g>
<g id="Group 1462">
<g id="Group 1455">
<path id="Path 1959" d="M54.575 62.164H27.923C27.271 62.1595 26.6475 61.8964 26.1892 61.4326C25.731 60.9687 25.4756 60.342 25.479 59.69V24.751C25.4756 24.099 25.731 23.4722 26.1892 23.0084C26.6475 22.5445 27.271 22.2815 27.923 22.277H54.575C55.2277 22.2807 55.8521 22.5434 56.3111 23.0073C56.7702 23.4712 57.0262 24.0984 57.023 24.751V29.432C57.0266 29.525 57.0113 29.6178 56.9782 29.7048C56.945 29.7917 56.8946 29.8711 56.8301 29.9382C56.7655 30.0053 56.6881 30.0586 56.6024 30.0951C56.5168 30.1315 56.4246 30.1503 56.3315 30.1503C56.2385 30.1503 56.1463 30.1315 56.0607 30.0951C55.975 30.0586 55.8976 30.0053 55.833 29.9382C55.7685 29.8711 55.7181 29.7917 55.6849 29.7048C55.6518 29.6178 55.6365 29.525 55.64 29.432V24.751C55.6414 24.468 55.5304 24.196 55.3315 23.9947C55.1326 23.7933 54.862 23.6791 54.579 23.677H27.923C27.6401 23.6791 27.3696 23.7934 27.1709 23.9947C26.9722 24.1961 26.8614 24.4681 26.863 24.751V59.69C26.8614 59.9729 26.9722 60.2449 27.1709 60.4462C27.3696 60.6476 27.6401 60.7619 27.923 60.764H54.575C54.858 60.7619 55.1286 60.6476 55.3275 60.4463C55.5264 60.245 55.6374 59.973 55.636 59.69V46.337C55.6325 46.244 55.6478 46.1512 55.6809 46.0642C55.7141 45.9772 55.7644 45.8978 55.829 45.8307C55.8936 45.7637 55.971 45.7103 56.0567 45.6739C56.1423 45.6375 56.2345 45.6187 56.3275 45.6187C56.4206 45.6187 56.5128 45.6375 56.5984 45.6739C56.6841 45.7103 56.7615 45.7637 56.8261 45.8307C56.8906 45.8978 56.941 45.9772 56.9742 46.0642C57.0073 46.1512 57.0226 46.244 57.019 46.337V59.69C57.0222 60.3419 56.7667 60.9685 56.3086 61.4323C55.8504 61.8961 55.227 62.1592 54.575 62.164Z" fill="black"/>
</g>
<g id="Group 1456">
<path id="Path 1960" d="M46.966 55.165C46.8424 55.1637 46.7215 55.1291 46.616 55.065C46.5236 55.01 46.4452 54.9345 46.3868 54.8443C46.3283 54.7541 46.2915 54.6517 46.279 54.545L45.533 48.301C45.5146 48.1535 45.5436 48.0039 45.616 47.874L56.905 27.532C57.712 26.147 60.148 26.032 62.234 27.276C63.1531 27.7998 63.9209 28.5525 64.463 29.461C64.7201 29.8481 64.8694 30.2969 64.8954 30.7609C64.9214 31.2249 64.8232 31.6875 64.611 32.101L53.323 52.432C53.2468 52.5694 53.1262 52.677 52.981 52.737L47.223 55.114C47.1414 55.1473 47.0541 55.1646 46.966 55.165Z" fill="black"/>
</g>
<g id="Group 1457">
<path id="Path 1961" d="M49.432 30.9189H33.639C33.4533 30.9189 33.2753 30.8452 33.144 30.7139C33.0127 30.5826 32.939 30.4046 32.939 30.2189C32.939 30.0333 33.0127 29.8552 33.144 29.7239C33.2753 29.5927 33.4533 29.5189 33.639 29.5189H49.432C49.6176 29.5189 49.7957 29.5927 49.9269 29.7239C50.0582 29.8552 50.132 30.0333 50.132 30.2189C50.132 30.4046 50.0582 30.5826 49.9269 30.7139C49.7957 30.8452 49.6176 30.9189 49.432 30.9189Z" fill="black"/>
</g>
<g id="Group 1458">
<path id="Path 1962" d="M49.432 34.864H33.639C33.4533 34.864 33.2753 34.7902 33.144 34.659C33.0127 34.5277 32.939 34.3496 32.939 34.164C32.939 33.9783 33.0127 33.8003 33.144 33.669C33.2753 33.5377 33.4533 33.464 33.639 33.464H49.432C49.6176 33.464 49.7957 33.5377 49.9269 33.669C50.0582 33.8003 50.132 33.9783 50.132 34.164C50.132 34.3496 50.0582 34.5277 49.9269 34.659C49.7957 34.7902 49.6176 34.864 49.432 34.864Z" fill="black"/>
</g>
<g id="Group 1459">
<path id="Path 1963" d="M49.432 38.808H33.639C33.4533 38.808 33.2753 38.7342 33.144 38.6029C33.0127 38.4717 32.939 38.2936 32.939 38.108C32.939 37.9223 33.0127 37.7443 33.144 37.613C33.2753 37.4817 33.4533 37.408 33.639 37.408H49.432C49.6176 37.408 49.7957 37.4817 49.9269 37.613C50.0582 37.7443 50.132 37.9223 50.132 38.108C50.132 38.2936 50.0582 38.4717 49.9269 38.6029C49.7957 38.7342 49.6176 38.808 49.432 38.808Z" fill="black"/>
</g>
<g id="Group 1460">
<path id="Path 1964" d="M49.432 42.753H33.639C33.4533 42.753 33.2753 42.6793 33.144 42.548C33.0127 42.4167 32.939 42.2387 32.939 42.053C32.939 41.8674 33.0127 41.6893 33.144 41.5581C33.2753 41.4268 33.4533 41.353 33.639 41.353H49.432C49.6176 41.353 49.7957 41.4268 49.9269 41.5581C50.0582 41.6893 50.132 41.8674 50.132 42.053C50.132 42.2387 50.0582 42.4167 49.9269 42.548C49.7957 42.6793 49.6176 42.753 49.432 42.753Z" fill="black"/>
</g>
<g id="Group 1461">
<path id="Path 1965" d="M32.5761 57.045C32.4213 57.0442 32.2712 56.9916 32.1497 56.8955C32.0283 56.7994 31.9425 56.6655 31.9061 56.515C31.8725 56.3821 31.8787 56.2423 31.9238 56.1128C31.969 55.9834 32.0511 55.8701 32.1601 55.787C32.2851 55.649 32.6511 55.171 33.0071 54.709C34.9311 52.209 36.7471 49.919 37.8231 49.452C37.9522 49.3962 38.0953 49.3815 38.233 49.4098C38.3707 49.438 38.4964 49.5079 38.5931 49.61C38.6909 49.713 38.7553 49.8431 38.778 49.9834C38.8006 50.1236 38.7805 50.2674 38.7201 50.396C38.5331 50.796 38.3651 51.163 38.2201 51.502L38.6201 51.091C38.7305 50.9759 38.8776 50.9029 39.0361 50.8846C39.1946 50.8664 39.3544 50.904 39.4881 50.991C39.6229 51.0788 39.7233 51.2103 39.7725 51.3635C39.8217 51.5167 39.8166 51.6821 39.7581 51.832L39.3921 52.794L39.6591 52.626C39.7832 52.5477 39.929 52.5113 40.0753 52.5219C40.2216 52.5325 40.3606 52.5896 40.4721 52.685C40.5837 52.7815 40.6622 52.9106 40.6967 53.0541C40.7311 53.1976 40.7197 53.3483 40.6641 53.485L40.6481 53.524C41.8481 53.346 43.8111 53.187 44.8131 53.864C44.966 53.9683 45.0718 54.1286 45.1078 54.3102C45.1437 54.4918 45.1068 54.6803 45.0051 54.835C44.9552 54.9111 44.8907 54.9765 44.8154 55.0276C44.74 55.0786 44.6553 55.1141 44.5661 55.1322C44.4769 55.1502 44.385 55.1504 44.2958 55.1327C44.2065 55.115 44.1216 55.0797 44.0461 55.029C43.4641 54.637 41.6101 54.737 40.1611 55.029C40.0075 55.063 39.8476 55.0542 39.6987 55.0034C39.5498 54.9526 39.4178 54.8618 39.3171 54.741C39.2713 54.6869 39.2326 54.627 39.2021 54.563L38.3671 55.09C38.2445 55.1684 38.1001 55.2055 37.9549 55.196C37.8097 55.1865 37.6714 55.1307 37.5601 55.037C37.4732 54.9645 37.4052 54.8721 37.3618 54.7676C37.3184 54.6631 37.301 54.5497 37.3111 54.437L36.8741 54.888C36.7691 54.9971 36.6307 55.0682 36.4808 55.0901C36.3309 55.112 36.178 55.0835 36.0461 55.009C35.9128 54.9343 35.8076 54.818 35.7465 54.6778C35.6855 54.5377 35.672 54.3815 35.7081 54.233C35.8157 53.8312 35.9442 53.4353 36.0931 53.047C35.3301 53.971 34.5731 54.956 34.1051 55.565C33.0821 56.896 33.0431 56.948 32.7521 57.022C32.6947 57.0371 32.6355 57.0448 32.5761 57.045Z" fill="black"/>
</g>
</g>
</g>
<path id="Color Overlay" d="M0 42.22C0 19.061 18.616 0.219971 41.5 0.219971C64.384 0.219971 83 19.062 83 42.22C83 65.378 64.383 84.22 41.5 84.22C18.617 84.22 0 65.378 0 42.22ZM0.921997 42.22C0.921997 64.864 19.122 83.2859 41.498 83.2859C63.874 83.2859 82.077 64.864 82.077 42.22C82.077 19.576 63.877 1.15295 41.498 1.15295C19.119 1.15295 0.921997 19.576 0.921997 42.22ZM27.922 62.1631C27.2703 62.1583 26.6472 61.8952 26.1892 61.4316C25.7312 60.968 25.4758 60.3416 25.479 59.6899V24.751C25.4753 24.0991 25.7305 23.4724 26.1885 23.0085C26.6466 22.5447 27.2701 22.2813 27.922 22.2769H54.575C55.2271 22.2814 55.8508 22.5445 56.3092 23.0083C56.7676 23.4721 57.0232 24.0989 57.02 24.751V27.3589C57.92 26.1399 60.238 26.0909 62.233 27.2769C63.1521 27.8003 63.92 28.5528 64.462 29.4609C64.7193 29.8484 64.8687 30.2976 64.8947 30.762C64.9207 31.2264 64.8224 31.6893 64.61 32.103L56.916 45.9661C56.9825 46.0779 57.0171 46.2058 57.016 46.3359V59.6899C57.0187 60.3418 56.7628 60.9681 56.3045 61.4316C55.8462 61.8952 55.2229 62.1583 54.571 62.1631H27.922ZM26.862 24.751V59.6899C26.8607 59.9727 26.9715 60.2444 27.1702 60.4456C27.3689 60.6467 27.6393 60.7608 27.922 60.7629H54.575C54.858 60.7611 55.1287 60.6472 55.3278 60.446C55.5269 60.2449 55.6381 59.9729 55.637 59.6899V48.27L53.328 52.4319C53.2511 52.5676 53.1306 52.6734 52.986 52.7319L47.227 55.1079C47.1444 55.1426 47.0556 55.1599 46.966 55.1589C46.8431 55.1593 46.7222 55.1269 46.616 55.0649C46.5237 55.0099 46.4453 54.9344 46.3868 54.8442C46.3284 54.7541 46.2915 54.6516 46.279 54.5449L45.533 48.2969C45.5146 48.1493 45.5437 47.9998 45.616 47.8699L48.459 42.748H33.639C33.4534 42.748 33.2753 42.6742 33.144 42.543C33.0127 42.4117 32.939 42.2335 32.939 42.0479C32.939 41.8622 33.0127 41.6843 33.144 41.553C33.2753 41.4217 33.4534 41.3479 33.639 41.3479H49.239L55.699 29.708C55.6601 29.6194 55.6401 29.5237 55.64 29.427V24.7458C55.6408 24.6056 55.6139 24.4668 55.561 24.3369C55.5081 24.207 55.4301 24.0887 55.3315 23.989C55.2328 23.8893 55.1155 23.81 54.9862 23.7556C54.857 23.7012 54.7183 23.6727 54.578 23.6719H27.923C27.7825 23.6728 27.6435 23.7016 27.514 23.7563C27.3846 23.8111 27.2673 23.8909 27.1688 23.9912C27.0703 24.0915 26.9926 24.2102 26.9401 24.3406C26.8876 24.471 26.8614 24.6104 26.863 24.751H26.862ZM31.905 56.5149C31.8714 56.382 31.8776 56.2422 31.9227 56.1128C31.9679 55.9834 32.05 55.87 32.159 55.7869C32.283 55.6489 32.65 55.171 33.006 54.708C34.929 52.208 36.746 49.9179 37.821 49.4519C37.9499 49.3958 38.0928 49.3808 38.2306 49.4087C38.3683 49.4366 38.4942 49.5061 38.591 49.6079C38.6888 49.7109 38.7534 49.841 38.7762 49.9812C38.799 50.1214 38.7791 50.2653 38.719 50.394C38.531 50.794 38.3643 51.163 38.219 51.501L38.619 51.0911C38.7293 50.9758 38.8764 50.9025 39.0349 50.8843C39.1935 50.866 39.3534 50.9038 39.487 50.991C39.6218 51.0788 39.7222 51.2104 39.7714 51.3635C39.8206 51.5167 39.8155 51.6822 39.757 51.832L39.391 52.7949L39.657 52.627C39.7813 52.5488 39.9274 52.5124 40.0739 52.5232C40.2203 52.534 40.3595 52.5914 40.471 52.687C40.5834 52.783 40.6624 52.9122 40.6969 53.0559C40.7314 53.1996 40.7195 53.3505 40.663 53.4871L40.648 53.5269C41.848 53.3489 43.812 53.19 44.813 53.866C44.9654 53.9705 45.0709 54.1305 45.1068 54.3118C45.1427 54.4931 45.1061 54.6812 45.005 54.8359C44.9553 54.9122 44.8909 54.9779 44.8156 55.0291C44.7403 55.0802 44.6555 55.1159 44.5663 55.134C44.4771 55.1522 44.3851 55.1525 44.2958 55.1348C44.2065 55.1171 44.1216 55.0818 44.046 55.031C43.464 54.64 41.611 54.74 40.161 55.031C39.9722 55.0722 39.7749 55.0487 39.601 54.9644C39.4271 54.88 39.2866 54.7397 39.202 54.5659L38.368 55.094C38.2452 55.172 38.1008 55.2087 37.9557 55.199C37.8105 55.1893 37.6723 55.1337 37.561 55.04C37.4743 54.9675 37.4064 54.875 37.3632 54.7705C37.32 54.666 37.3028 54.5525 37.313 54.4399L36.876 54.8899C36.7713 54.9995 36.633 55.0712 36.4831 55.0935C36.3331 55.1158 36.1801 55.0874 36.048 55.0129C35.9147 54.938 35.8095 54.8215 35.7487 54.6812C35.6878 54.5408 35.6746 54.3846 35.711 54.2361C35.8183 53.8346 35.9469 53.439 36.096 53.051C35.334 53.975 34.576 54.9589 34.108 55.5679C33.085 56.8989 33.045 56.9509 32.755 57.0249C32.6664 57.047 32.5743 57.0513 32.4841 57.0376C32.3938 57.0239 32.3071 56.9926 32.229 56.9453C32.151 56.898 32.083 56.8357 32.0291 56.762C31.9752 56.6883 31.9364 56.6046 31.915 56.5159L31.905 56.5149ZM33.638 38.8079C33.4524 38.8079 33.2743 38.7343 33.143 38.603C33.0118 38.4718 32.938 38.2936 32.938 38.1079C32.938 37.9223 33.0118 37.7443 33.143 37.613C33.2743 37.4818 33.4524 37.408 33.638 37.408H49.431C49.6166 37.408 49.7947 37.4818 49.926 37.613C50.0572 37.7443 50.131 37.9223 50.131 38.1079C50.131 38.2936 50.0572 38.4718 49.926 38.603C49.7947 38.7343 49.6166 38.8079 49.431 38.8079H33.638ZM33.638 34.864C33.4524 34.864 33.2743 34.7902 33.143 34.6589C33.0118 34.5277 32.938 34.3497 32.938 34.1641C32.938 33.9784 33.0118 33.8002 33.143 33.6689C33.2743 33.5377 33.4524 33.4639 33.638 33.4639H49.431C49.6166 33.4639 49.7947 33.5377 49.926 33.6689C50.0572 33.8002 50.131 33.9784 50.131 34.1641C50.131 34.3497 50.0572 34.5277 49.926 34.6589C49.7947 34.7902 49.6166 34.864 49.431 34.864H33.638ZM33.638 30.918C33.4524 30.918 33.2743 30.8442 33.143 30.7129C33.0118 30.5816 32.938 30.4037 32.938 30.218C32.938 30.0324 33.0118 29.8542 33.143 29.7229C33.2743 29.5916 33.4524 29.5181 33.638 29.5181H49.431C49.6166 29.5181 49.7947 29.5916 49.926 29.7229C50.0572 29.8542 50.131 30.0324 50.131 30.218C50.131 30.4037 50.0572 30.5816 49.926 30.7129C49.7947 30.8442 49.6166 30.918 49.431 30.918H33.638Z" fill="white"/>
</g>
</svg>
