<svg width="86" height="86" viewBox="0 0 86 86" fill="none" xmlns="http://www.w3.org/2000/svg">
<g id="Objeto inteligente vectorial">
<g id="Objeto inteligente vectorial_2">
<g id="Group 1499">
<g id="Group 1498">
<path id="Path 2002" d="M58.0089 3.96702C57.9333 4.27037 57.8329 4.56702 57.7089 4.85402C66.7088 8.30861 74.2063 14.8196 78.888 23.2466C83.5698 31.6735 85.1373 41.479 83.316 50.9456C81.4947 60.4121 76.4007 68.936 68.9264 75.0242C61.452 81.1123 52.0738 84.3766 42.4346 84.2451C32.7953 84.1137 23.5097 80.5949 16.2041 74.3052C8.89853 68.0154 4.03889 59.3558 2.47642 49.8431C0.913948 40.3305 2.74828 30.5713 7.6581 22.2752C12.5679 13.979 20.2402 7.6749 29.3309 4.46702C29.2165 4.17522 29.1275 3.87411 29.0649 3.56702C19.7568 6.83787 11.897 13.2807 6.86336 21.7661C1.82972 30.2515 -0.0565209 40.2379 1.53529 49.9747C3.12709 59.7116 8.09537 68.5774 15.5692 75.018C23.043 81.4586 32.5453 85.0631 42.4104 85.1994C52.2756 85.3358 61.8739 81.9953 69.5229 75.7637C77.1718 69.5321 82.3832 60.8069 84.2435 51.1178C86.1038 41.4287 84.4942 31.394 79.697 22.7727C74.8998 14.1515 67.2211 7.49386 58.0069 3.96702H58.0089Z" fill="black"/>
</g>
</g>
<g id="Group 1500">
<path id="Path 2003" d="M58.0089 3.96702C57.9333 4.27037 57.8329 4.56702 57.7089 4.85402C66.7088 8.30861 74.2063 14.8196 78.888 23.2466C83.5698 31.6735 85.1373 41.479 83.316 50.9456C81.4947 60.4121 76.4007 68.936 68.9264 75.0242C61.452 81.1123 52.0738 84.3766 42.4346 84.2451C32.7953 84.1137 23.5097 80.5949 16.2041 74.3052C8.89853 68.0154 4.03889 59.3558 2.47642 49.8431C0.913948 40.3305 2.74828 30.5713 7.6581 22.2752C12.5679 13.979 20.2402 7.6749 29.3309 4.46702C29.2165 4.17522 29.1275 3.87411 29.0649 3.56702C19.7568 6.83787 11.897 13.2807 6.86336 21.7661C1.82972 30.2515 -0.0565209 40.2379 1.53529 49.9747C3.12709 59.7116 8.09537 68.5774 15.5692 75.018C23.043 81.4586 32.5453 85.0631 42.4104 85.1994C52.2756 85.3358 61.8739 81.9953 69.5229 75.7637C77.1718 69.5321 82.3832 60.8069 84.2435 51.1178C86.1038 41.4287 84.4942 31.394 79.697 22.7727C74.8998 14.1515 67.2211 7.49386 58.0069 3.96702H58.0089Z" fill="black"/>
</g>
<g id="Group 1503">
<g id="Group 1502">
<g id="Group 1501">
<path id="Path 2004" d="M42.8829 37.428C41.1031 37.4211 39.3612 37.9425 37.8779 38.9261C36.3946 39.9097 35.2365 41.3114 34.5502 42.9536C33.864 44.5959 33.6805 46.4048 34.023 48.1514C34.3654 49.8979 35.2185 51.5036 36.4741 52.7651C37.7296 54.0266 39.3313 54.8871 41.0763 55.2377C42.8212 55.5884 44.631 55.4133 46.2764 54.7348C47.9218 54.0562 49.3289 52.9047 50.3195 51.426C51.31 49.9473 51.8395 48.2079 51.8409 46.428C51.8441 45.2488 51.6148 44.0805 51.1663 42.9899C50.7177 41.8992 50.0587 40.9077 49.2268 40.0719C48.3949 39.2361 47.4064 38.5724 46.3179 38.1188C45.2294 37.6651 44.0622 37.4304 42.8829 37.428Z" fill="black"/>
</g>
</g>
</g>
<g id="Group 1504">
<path id="Path 2006" d="M40.3209 23.886V22.128C40.3143 21.4629 40.3682 20.7985 40.4819 20.143C40.5832 19.5711 40.751 19.013 40.9819 18.48C41.2249 17.9362 41.5339 17.4244 41.9019 16.956C42.3458 16.3979 42.8301 15.8731 43.3509 15.386L45.4199 13.4C45.9967 12.8853 46.5013 12.2949 46.9199 11.645C47.4003 10.8055 47.6095 9.83795 47.5189 8.8749C47.4284 7.91185 47.0424 7.00032 46.4139 6.26503C45.9992 5.84386 45.4989 5.51663 44.9469 5.30547C44.3948 5.0943 43.8038 5.00413 43.2139 5.04103C42.5565 5.0312 41.905 5.16533 41.3049 5.43403C40.749 5.68633 40.2491 6.04705 39.8344 6.49505C39.4197 6.94306 39.0986 7.46933 38.8899 8.04303C38.6768 8.62094 38.5527 9.22786 38.5219 9.84303L32.8659 9.33503C33.0187 7.95936 33.4159 6.62203 34.0389 5.38603C34.6105 4.26389 35.3998 3.26682 36.3609 2.45303C37.3247 1.64496 38.4325 1.02612 39.6259 0.629034C40.901 0.205394 42.2373 -0.0050948 43.5809 0.00603454C44.8529 -0.00139643 46.118 0.193365 47.3289 0.583034C48.471 0.947264 49.5326 1.52744 50.4559 2.29203C51.3663 3.05395 52.0964 4.00816 52.5939 5.08603C53.1351 6.29007 53.4022 7.59924 53.3759 8.91903C53.3903 9.79219 53.2819 10.663 53.0539 11.506C52.8486 12.2244 52.539 12.9086 52.1349 13.537C51.7155 14.1788 51.2298 14.7747 50.6859 15.315C50.1172 15.885 49.4809 16.4777 48.7769 17.093C48.1629 17.617 47.6649 18.0787 47.2829 18.478C46.929 18.8395 46.6201 19.2424 46.3629 19.678C46.1327 20.0799 45.9695 20.5166 45.8799 20.971C45.779 21.5349 45.7328 22.1073 45.7419 22.68V23.88L40.3209 23.886ZM39.4019 30.306C39.3966 29.8309 39.4899 29.3598 39.6759 28.9226C39.862 28.4854 40.1368 28.0916 40.4829 27.766C40.8221 27.4226 41.2273 27.1514 41.6742 26.9689C42.1211 26.7863 42.6003 26.6962 43.0829 26.704C44.0407 26.6952 44.9642 27.0596 45.6579 27.72C46.0104 28.0317 46.2913 28.416 46.4812 28.8465C46.6711 29.277 46.7655 29.7436 46.7579 30.214C46.7631 30.689 46.6697 31.1599 46.4837 31.5969C46.2976 32.0339 46.0229 32.4276 45.6769 32.753C45.3379 33.0967 44.9327 33.3681 44.4858 33.5506C44.0389 33.7332 43.5596 33.8231 43.0769 33.815C42.5965 33.817 42.1206 33.7231 41.6769 33.539C41.246 33.3632 40.8493 33.113 40.5049 32.8C40.1644 32.4886 39.8905 32.1113 39.6999 31.691C39.5 31.2565 39.3982 30.7833 39.4019 30.305V30.306Z" fill="#211915"/>
</g>
<g id="Group 1505">
<path id="Path 2007" d="M56.4549 30.165L56.9499 29.287C57.1347 28.9524 57.3493 28.6351 57.5909 28.339C57.8031 28.0819 58.0451 27.8509 58.3119 27.651C58.5865 27.4484 58.8851 27.2804 59.2009 27.151C59.5804 26.9974 59.9708 26.8724 60.3689 26.777L61.9689 26.377C62.4017 26.2825 62.8198 26.1301 63.2119 25.924C63.6267 25.6922 63.9651 25.3447 64.1859 24.924C64.5156 24.3733 64.6192 23.7164 64.4749 23.091C64.3864 22.7627 64.2287 22.4572 64.0124 22.1949C63.7961 21.9325 63.5263 21.7195 63.2209 21.57C62.8953 21.3783 62.5319 21.2599 62.1559 21.223C61.8065 21.1918 61.4544 21.2302 61.1199 21.336C60.7864 21.4415 60.4775 21.6133 60.2119 21.841C59.9419 22.0709 59.7085 22.3407 59.5199 22.641L56.8309 20.768C57.2947 20.1236 57.8705 19.5678 58.5309 19.127C59.1332 18.7276 59.8096 18.4532 60.5199 18.32C61.2305 18.1894 61.9594 18.1949 62.6679 18.336C63.4258 18.4865 64.1536 18.7612 64.8219 19.149C65.4608 19.507 66.039 19.964 66.5349 20.503C67.0038 21.0094 67.3711 21.6011 67.6169 22.246C67.8576 22.8861 67.9543 23.5713 67.8999 24.253C67.8309 25.0085 67.5952 25.7394 67.2099 26.393C66.9708 26.8326 66.6712 27.2365 66.3199 27.593C66.0148 27.8943 65.6667 28.1487 65.2869 28.348C64.8961 28.5499 64.4852 28.7101 64.0609 28.826C63.6156 28.9487 63.1299 29.064 62.6039 29.172C62.1493 29.26 61.7699 29.3493 61.4659 29.44C61.1867 29.5206 60.9181 29.6344 60.6659 29.779C60.4375 29.9149 60.2328 30.0871 60.0599 30.289C59.8504 30.5425 59.6655 30.8154 59.5079 31.104L59.1699 31.704L56.4549 30.165ZM54.1849 33.115C54.3161 32.876 54.4957 32.667 54.7121 32.5012C54.9285 32.3354 55.177 32.2165 55.4419 32.152C55.7087 32.0764 55.9881 32.0557 56.2632 32.0913C56.5382 32.1269 56.8031 32.218 57.0419 32.359C57.523 32.6276 57.8813 33.072 58.0419 33.599C58.1305 33.8549 58.1628 34.1269 58.1368 34.3965C58.1107 34.666 58.0269 34.9268 57.8909 35.161C57.7596 35.3999 57.5801 35.6089 57.3637 35.7746C57.1473 35.9404 56.8988 36.0594 56.6339 36.124C56.3671 36.1997 56.0877 36.2204 55.8127 36.1848C55.5376 36.1492 55.2727 36.0581 55.0339 35.917C54.7923 35.7812 54.5805 35.5982 54.4109 35.379C54.2449 35.1695 54.1166 34.9326 54.0319 34.679C53.9493 34.4268 53.9187 34.1604 53.9419 33.896C53.964 33.6206 54.047 33.3535 54.1849 33.114V33.115Z" fill="#211915"/>
</g>
<g id="Group 1506">
<path id="Path 2008" d="M27.7779 30.9632L27.2199 30.1242C27.0049 29.8084 26.8191 29.4737 26.6649 29.1242C26.5322 28.8175 26.4359 28.4963 26.3779 28.1672C26.3203 27.8291 26.3049 27.4851 26.3319 27.1432C26.3661 26.734 26.4303 26.3279 26.5239 25.9282L26.8809 24.3152C26.9923 23.8846 27.0451 23.4409 27.0379 22.9962C27.0011 22.442 26.7935 21.9129 26.4435 21.4817C26.0936 21.0505 25.6186 20.7383 25.0839 20.5882C24.7512 20.5198 24.4077 20.5237 24.0766 20.5996C23.7455 20.6755 23.4346 20.8217 23.1649 21.0282C22.8478 21.2347 22.5793 21.5077 22.3779 21.8282C22.193 22.1273 22.069 22.46 22.0129 22.8072C21.957 23.1538 21.9713 23.5082 22.0549 23.8492C22.1377 24.194 22.2726 24.5241 22.4549 24.8282L19.5909 26.4002C19.2241 25.6938 18.987 24.9273 18.8909 24.1372C18.8068 23.4173 18.8666 22.6878 19.0669 21.9912C19.2699 21.2954 19.602 20.6441 20.0459 20.0712C20.5199 19.4596 21.0911 18.9302 21.7369 18.5042C22.3419 18.0922 23.0086 17.7789 23.7119 17.5762C24.373 17.3839 25.0649 17.3204 25.7499 17.3892C26.4275 17.461 27.0806 17.6827 27.6619 18.0382C28.3039 18.4397 28.8482 18.9795 29.2549 19.6182C29.5399 20.0308 29.7651 20.4816 29.9239 20.9572C30.0549 21.3684 30.1246 21.7967 30.1309 22.2282C30.1347 22.6697 30.0925 23.1104 30.0049 23.5432C29.9143 23.9978 29.7989 24.4852 29.6589 25.0052C29.5323 25.4525 29.4413 25.8332 29.3859 26.1472C29.3318 26.4335 29.3127 26.7253 29.3289 27.0162C29.3466 27.2817 29.4078 27.5425 29.5099 27.7882C29.641 28.09 29.8011 28.3783 29.9879 28.6492L30.3699 29.2232L27.7779 30.9632ZM29.3779 34.3252C29.2241 34.0994 29.1189 33.8442 29.0688 33.5757C29.0187 33.3072 29.0249 33.0312 29.0869 32.7652C29.139 32.4925 29.2456 32.2331 29.4002 32.0025C29.5549 31.7719 29.7544 31.5749 29.9869 31.4232C30.4407 31.1122 30.9976 30.99 31.5399 31.0822C31.8078 31.1177 32.0648 31.2111 32.2931 31.3558C32.5214 31.5005 32.7155 31.6931 32.8619 31.9202C33.0157 32.146 33.121 32.4011 33.1713 32.6696C33.2215 32.9381 33.2156 33.2141 33.1539 33.4802C33.0692 33.8889 32.8667 34.2639 32.5713 34.5589C32.276 34.8539 31.9008 35.0559 31.4919 35.1402C31.2287 35.1945 30.9579 35.2023 30.6919 35.1632C30.4303 35.1236 30.1795 35.0311 29.9549 34.8912C29.7247 34.7478 29.5287 34.5556 29.3809 34.3282L29.3779 34.3252Z" fill="#211915"/>
</g>
</g>
<path id="Color Overlay" d="M0.999963 43.35C1.00071 34.6332 3.69876 26.1301 8.7239 19.0075C13.749 11.8849 20.8551 6.49175 29.067 3.56804C29.1297 3.8751 29.2187 4.17611 29.333 4.46794C20.2383 7.67526 12.5623 13.9805 7.6495 22.279C2.73673 30.5774 0.900547 40.3396 2.46267 49.8559C4.02479 59.3721 8.88561 68.0354 16.1935 74.3278C23.5014 80.6202 32.7904 84.1404 42.4331 84.2719C52.0758 84.4034 61.4573 81.1377 68.9341 75.047C76.4109 68.9563 81.5061 60.429 83.3272 50.9589C85.1483 41.4888 83.5791 31.68 78.8946 23.2507C74.21 14.8213 66.7087 8.30909 57.705 4.8549C57.829 4.5679 57.9293 4.27129 58.005 3.96794C65.2002 6.68128 71.5157 11.312 76.2672 17.3581C81.0188 23.4042 84.0253 30.6351 84.9609 38.2677C85.8965 45.9004 84.7256 53.6436 81.575 60.6584C78.4245 67.6731 73.4144 73.692 67.0876 78.0629C60.7608 82.4338 53.3585 84.9902 45.6828 85.4548C38.007 85.9194 30.3505 84.2745 23.5427 80.6987C16.7349 77.1228 11.0354 71.7522 7.06173 65.1686C3.08808 58.5851 0.991796 51.0398 0.999963 43.35ZM33.4669 79.0209C33.5219 75.1719 33.567 72.1589 33.567 72.0949C33.5506 69.7684 33.7178 67.4442 34.067 65.144C30.267 64.302 26.938 63.1378 24.677 60.3788C23.6052 58.9613 23.0804 57.2052 23.1989 55.432C23.8609 51.732 28.956 47.6748 33.344 44.8058C32.9166 47.2377 33.4427 49.7408 34.813 51.7948C33.0374 53.0068 31.4161 54.4306 29.9849 56.0348C31.9989 57.7128 34.2149 58.991 38.0319 57.217C38.5049 56.94 38.9759 56.686 39.4459 56.465C39.4689 56.452 39.491 56.441 39.515 56.425V56.4299C39.925 56.2377 40.3445 56.0665 40.7719 55.9169C40.7783 55.9175 40.7847 55.9175 40.791 55.9169L42.312 57.517L42.966 58.1779L43.624 57.517L45.145 55.9169H45.167C46.7758 56.5195 48.2963 57.3355 49.688 58.3429C50.8915 59.164 52.0184 60.092 53.055 61.1159H53.062C53.076 61.1279 53.1259 61.184 53.1619 61.216C54.8126 62.8309 56.186 64.7067 57.227 66.768C57.8634 68.0476 58.4094 69.3701 58.861 70.726C59.5083 72.3402 60.0537 73.9934 60.494 75.6759C58.5807 76.7346 56.5759 77.619 54.504 78.318C53.9833 76.0589 53.2386 73.8573 52.281 71.746C52.239 71.654 52.1969 71.553 52.1519 71.464L52.325 78.976C46.1497 80.627 39.6512 80.6428 33.468 79.0219L33.4669 79.0209ZM33.927 46.4208C33.9341 44.6508 34.4654 42.9227 35.4539 41.4545C36.4425 39.9863 37.8439 38.844 39.4812 38.1716C41.1185 37.4991 42.9182 37.3268 44.6533 37.6764C46.3885 38.0261 47.9811 38.8821 49.2301 40.1362C50.4792 41.3902 51.3287 42.9863 51.6714 44.7228C52.0141 46.4593 51.8346 48.2584 51.1557 49.893C50.4767 51.5276 49.3286 52.9243 47.8565 53.9069C46.3843 54.8895 44.6539 55.414 42.8839 55.414C40.5042 55.4089 38.2239 54.4592 36.5443 52.7734C34.8647 51.0875 33.9232 48.8037 33.927 46.424V46.4208ZM55.036 35.914C54.794 35.7784 54.5817 35.5953 54.4119 35.3759C54.2464 35.166 54.1183 34.9293 54.033 34.6759C53.9508 34.4236 53.9205 34.1573 53.9439 33.893C53.9658 33.6189 54.0478 33.3528 54.184 33.1139C54.3153 32.875 54.4948 32.6659 54.7112 32.5002C54.9276 32.3344 55.1761 32.2156 55.4409 32.151C55.7078 32.0757 55.9873 32.0552 56.2623 32.091C56.5373 32.1267 56.8022 32.218 57.041 32.3591C57.5218 32.6274 57.8802 33.0712 58.041 33.5978C58.1298 33.8539 58.1623 34.1262 58.1362 34.3959C58.1101 34.6657 58.0261 34.9265 57.89 35.1608C57.7586 35.3996 57.579 35.6086 57.3626 35.7743C57.1462 35.9401 56.8977 36.0592 56.633 36.1239C56.4485 36.1743 56.2582 36.2 56.067 36.2008C55.7043 36.1983 55.3488 36.1004 55.036 35.9169V35.914ZM30.703 35.1608C30.4414 35.121 30.1907 35.0285 29.966 34.8888C29.732 34.7455 29.5326 34.5523 29.382 34.3229C29.2279 34.0973 29.1224 33.8422 29.0721 33.5737C29.0218 33.3051 29.0279 33.0289 29.09 32.7629C29.1421 32.49 29.2487 32.2307 29.4033 31.9999C29.5579 31.7692 29.7574 31.5718 29.99 31.4198C30.4437 31.1089 31.0007 30.9868 31.543 31.079C31.8108 31.1146 32.0676 31.2078 32.2957 31.3525C32.5238 31.4972 32.7177 31.6898 32.864 31.9169C33.0176 32.1427 33.1229 32.398 33.1734 32.6664C33.2238 32.9349 33.2182 33.2108 33.1569 33.477C33.1044 33.7495 32.9976 34.0087 32.843 34.2392C32.6884 34.4697 32.4892 34.6669 32.257 34.819C32.0273 34.9741 31.7694 35.0823 31.4979 35.1379C31.3435 35.1689 31.1865 35.1847 31.029 35.185C30.9189 35.1857 30.809 35.1787 30.7 35.164L30.703 35.1608ZM41.679 33.5358C41.2477 33.36 40.8507 33.1101 40.5059 32.797C40.1657 32.4853 39.8919 32.108 39.701 31.6879C39.5004 31.2539 39.398 30.781 39.401 30.3029C39.3957 29.8278 39.489 29.3568 39.6751 28.9196C39.8611 28.4824 40.1359 28.0884 40.482 27.7629C40.8211 27.4193 41.2263 27.148 41.6732 26.9655C42.1201 26.783 42.5993 26.6929 43.0819 26.7008C44.0395 26.692 44.9629 27.0562 45.6569 27.716C46.0095 28.0278 46.2905 28.4122 46.4804 28.8429C46.6703 29.2736 46.7646 29.7402 46.757 30.2109C46.7621 30.6858 46.6686 31.1567 46.4826 31.5937C46.2965 32.0307 46.0219 32.4244 45.676 32.7499C45.3369 33.0935 44.9317 33.3647 44.4848 33.5473C44.0379 33.7298 43.5586 33.8199 43.076 33.8119C42.5964 33.8143 42.1211 33.7212 41.6779 33.538L41.679 33.5358ZM56.456 30.163L56.95 29.2848C57.1349 28.9501 57.3498 28.6328 57.5919 28.3368C58.0208 27.8117 58.5748 27.4029 59.203 27.1479C59.5821 26.9943 59.9722 26.8693 60.37 26.7738L61.965 26.3688C62.3982 26.2745 62.8166 26.1223 63.2089 25.9159C63.6237 25.6841 63.9621 25.3366 64.1829 24.9159C64.5133 24.3655 64.6173 23.7084 64.473 23.0829C64.3842 22.7545 64.2263 22.4489 64.0099 22.1864C63.7935 21.924 63.5235 21.7107 63.218 21.561C62.8925 21.3693 62.529 21.2513 62.153 21.215C61.8036 21.1837 61.4514 21.2222 61.117 21.328C60.7834 21.4336 60.4746 21.6052 60.2089 21.8329C59.939 22.0629 59.7057 22.3327 59.517 22.633L56.83 20.7699C57.294 20.1257 57.8698 19.5698 58.53 19.1288C59.1323 18.7294 59.8086 18.4551 60.5189 18.3219C61.2291 18.191 61.9578 18.1963 62.666 18.3378C63.4242 18.4881 64.1524 18.7631 64.8209 19.151C65.4599 19.509 66.0381 19.966 66.534 20.505C67.0028 21.0119 67.3701 21.6038 67.616 22.2489C67.8565 22.8887 67.9531 23.5737 67.8989 24.255C67.8301 25.0105 67.5948 25.7412 67.21 26.3949C66.9704 26.8345 66.6704 27.2384 66.3189 27.5949C66.0142 27.8967 65.666 28.1513 65.286 28.35C64.8952 28.5522 64.4843 28.7127 64.06 28.829C63.6153 28.9517 63.13 29.067 62.604 29.175C62.1493 29.263 61.77 29.3524 61.466 29.443C61.1867 29.5236 60.9181 29.6373 60.666 29.7819C60.4376 29.9178 60.2328 30.0901 60.06 30.2919C59.8502 30.5452 59.6653 30.8181 59.508 31.1069L59.1699 31.707L56.456 30.163ZM27.2199 30.122C27.0048 29.8063 26.819 29.4716 26.6649 29.122C26.5319 28.815 26.4353 28.4935 26.377 28.164C26.3196 27.8262 26.3041 27.4826 26.331 27.141C26.366 26.7319 26.4305 26.3258 26.5239 25.9259L26.88 24.3129C26.9918 23.8824 27.0446 23.4386 27.0369 22.9938C27.0001 22.4397 26.7925 21.9106 26.4426 21.4794C26.0927 21.0482 25.6176 20.736 25.083 20.5859C24.7505 20.518 24.4073 20.5222 24.0766 20.5983C23.7459 20.6744 23.4354 20.8207 23.166 21.027C22.8485 21.2332 22.58 21.506 22.379 21.8268C22.1939 22.1259 22.0698 22.4586 22.0139 22.8058C21.9577 23.1528 21.972 23.5077 22.056 23.849C22.1388 24.1938 22.2737 24.5239 22.456 24.828L19.593 26.3988C19.2262 25.6928 18.9891 24.9267 18.893 24.1369C18.8089 23.417 18.8687 22.6875 19.0689 21.9909C19.272 21.2955 19.6041 20.6445 20.0479 20.0719C20.5216 19.4599 21.0929 18.93 21.739 18.5038C22.3444 18.092 23.0114 17.7788 23.715 17.5758C24.3758 17.3842 25.0673 17.321 25.752 17.3898C26.4296 17.4615 27.0827 17.6833 27.664 18.039C28.3062 18.4405 28.8508 18.9801 29.258 19.6188C29.5432 20.0313 29.7684 20.4822 29.927 20.9579C30.0573 21.3672 30.1271 21.7933 30.1339 22.2228C30.1383 22.6644 30.0961 23.1053 30.008 23.538C29.918 23.9927 29.8026 24.4799 29.6619 24.9999C29.5353 25.4473 29.444 25.828 29.388 26.142C29.3339 26.428 29.3147 26.7194 29.331 27.0099C29.3483 27.2755 29.4095 27.5363 29.512 27.7819C29.6428 28.0842 29.8028 28.3729 29.99 28.644L30.372 29.217L27.779 30.9579L27.2199 30.122ZM40.32 23.883V22.1269C40.3136 21.462 40.3675 20.7981 40.481 20.143C40.5827 19.5712 40.7505 19.013 40.981 18.4799C41.2247 17.9363 41.534 17.4246 41.9019 16.956C42.3455 16.3979 42.8295 15.8731 43.3499 15.3859L45.4199 13.3998C45.9949 12.8847 46.4978 12.2945 46.9149 11.6449C47.3956 10.8054 47.605 9.83779 47.5144 8.87468C47.4238 7.91156 47.0377 6.99996 46.409 6.26481C45.9943 5.84364 45.494 5.5165 44.9419 5.30534C44.3899 5.09418 43.7989 5.00403 43.2089 5.04094C42.5517 5.03111 41.9002 5.16498 41.2999 5.43303C40.7444 5.68667 40.2445 6.04759 39.8289 6.49504C39.4143 6.94302 39.0934 7.46917 38.885 8.04289C38.6723 8.62086 38.5485 9.22782 38.518 9.84294L32.861 9.33488C33.014 7.95912 33.4115 6.6218 34.0349 5.38591C34.6062 4.26386 35.3956 3.26718 36.357 2.45402C37.3206 1.64565 38.4284 1.0268 39.622 0.630047C40.8971 0.20655 42.2334 -0.00398298 43.577 0.00700036C44.849 -0.000532382 46.1141 0.194137 47.325 0.583905C48.4676 0.947742 49.5295 1.52793 50.453 2.29289C51.3635 3.05466 52.0937 4.00886 52.591 5.08683C53.1326 6.29076 53.4 7.59996 53.374 8.91984C53.3881 9.79299 53.2797 10.664 53.052 11.507C52.8461 12.2253 52.5362 12.9095 52.132 13.538C51.7127 14.1796 51.2274 14.7753 50.684 15.3158C50.1153 15.8852 49.479 16.4779 48.775 17.0939C48.161 17.6179 47.663 18.0796 47.281 18.4789C46.9268 18.8404 46.6175 19.2432 46.3599 19.6789C46.1303 20.0809 45.9675 20.5176 45.878 20.9718C45.7766 21.5357 45.73 22.108 45.739 22.6808V23.881L40.32 23.883Z" fill="white"/>
</g>
</svg>
