<svg width="86" height="86" viewBox="0 0 86 86" fill="none" xmlns="http://www.w3.org/2000/svg">
<g id="Objeto inteligente vectorial">
<g id="Objeto inteligente vectorial_2">
<g id="Group 1499">
<g id="Group 1498">
<path id="Path 2002" d="M58.0089 4.17698C57.9333 4.48033 57.8329 4.77698 57.7089 5.06398C66.7088 8.51857 74.2063 15.0296 78.888 23.4565C83.5698 31.8835 85.1373 41.689 83.316 51.1555C81.4947 60.622 76.4007 69.1459 68.9264 75.2341C61.452 81.3223 52.0738 84.5866 42.4346 84.4551C32.7953 84.3237 23.5097 80.8049 16.2041 74.5151C8.89853 68.2254 4.03889 59.5658 2.47642 50.0531C0.913948 40.5404 2.74828 30.7813 7.6581 22.4851C12.5679 14.189 20.2402 7.88486 29.3309 4.67698C29.2165 4.38518 29.1275 4.08407 29.0649 3.77698C19.7568 7.04783 11.897 13.4907 6.86336 21.9761C1.82972 30.4615 -0.0565209 40.4479 1.53529 50.1847C3.12709 59.9215 8.09537 68.7873 15.5692 75.228C23.043 81.6686 32.5453 85.273 42.4104 85.4094C52.2756 85.5457 61.8739 82.2053 69.5229 75.9737C77.1718 69.742 82.3832 61.0169 84.2435 51.3278C86.1038 41.6387 84.4942 31.6039 79.697 22.9827C74.8998 14.3614 67.2211 7.70382 58.0069 4.17698H58.0089Z" fill="black"/>
</g>
</g>
<g id="Group 1500">
<path id="Path 2003" d="M58.0089 4.17698C57.9333 4.48033 57.8329 4.77698 57.7089 5.06398C66.7088 8.51857 74.2063 15.0296 78.888 23.4565C83.5698 31.8835 85.1373 41.689 83.316 51.1555C81.4947 60.622 76.4007 69.1459 68.9264 75.2341C61.452 81.3223 52.0738 84.5866 42.4346 84.4551C32.7953 84.3237 23.5097 80.8049 16.2041 74.5151C8.89853 68.2254 4.03889 59.5658 2.47642 50.0531C0.913948 40.5404 2.74828 30.7813 7.6581 22.4851C12.5679 14.189 20.2402 7.88486 29.3309 4.67698C29.2165 4.38518 29.1275 4.08407 29.0649 3.77698C19.7568 7.04783 11.897 13.4907 6.86336 21.9761C1.82972 30.4615 -0.0565209 40.4479 1.53529 50.1847C3.12709 59.9215 8.09537 68.7873 15.5692 75.228C23.043 81.6686 32.5453 85.273 42.4104 85.4094C52.2756 85.5457 61.8739 82.2053 69.5229 75.9737C77.1718 69.742 82.3832 61.0169 84.2435 51.3278C86.1038 41.6387 84.4942 31.6039 79.697 22.9827C74.8998 14.3614 67.2211 7.70382 58.0069 4.17698H58.0089Z" fill="black"/>
</g>
<g id="Group 1503">
<g id="Group 1502">
<g id="Group 1501">
<path id="Path 2004" d="M42.883 37.638C41.1032 37.6311 39.3613 38.1524 37.878 39.1361C36.3946 40.1197 35.2365 41.5214 34.5503 43.1636C33.8641 44.8058 33.6806 46.6147 34.023 48.3613C34.3655 50.1079 35.2185 51.7136 36.4741 52.9751C37.7297 54.2365 39.3314 55.0971 41.0763 55.4477C42.8213 55.7983 44.6311 55.6233 46.2765 54.9448C47.9219 54.2662 49.329 53.1147 50.3195 51.636C51.3101 50.1572 51.8396 48.4178 51.841 46.638C51.8441 45.4588 51.6149 44.2904 51.1663 43.1998C50.7178 42.1092 50.0587 41.1177 49.2268 40.2819C48.3949 39.4461 47.4065 38.7824 46.318 38.3287C45.2295 37.8751 44.0622 37.6404 42.883 37.638Z" fill="black"/>
</g>
</g>
</g>
<g id="Group 1504">
<path id="Path 2006" d="M40.321 24.096V22.338C40.3144 21.6728 40.3683 21.0084 40.482 20.353C40.5832 19.7811 40.751 19.2229 40.982 18.69C41.2249 18.1462 41.5339 17.6343 41.902 17.166C42.3458 16.6079 42.8301 16.0831 43.351 15.596L45.42 13.61C45.9968 13.0953 46.5013 12.5049 46.92 11.855C47.4004 11.0154 47.6096 10.0479 47.519 9.08486C47.4284 8.12181 47.0425 7.21028 46.414 6.47499C45.9993 6.05382 45.499 5.72659 44.9469 5.51543C44.3949 5.30426 43.8039 5.21409 43.214 5.251C42.5566 5.24116 41.905 5.3753 41.305 5.64399C40.7491 5.89629 40.2491 6.25701 39.8344 6.70501C39.4197 7.15302 39.0986 7.67929 38.89 8.25299C38.6769 8.8309 38.5528 9.43782 38.522 10.053L32.866 9.54499C33.0187 8.16932 33.416 6.83199 34.039 5.59599C34.6105 4.47385 35.3999 3.47678 36.361 2.66299C37.3248 1.85492 38.4325 1.23608 39.626 0.838995C40.9011 0.415355 42.2373 0.204866 43.581 0.215995C44.853 0.208565 46.1181 0.403326 47.329 0.792995C48.4711 1.15722 49.5326 1.7374 50.456 2.50199C51.3663 3.26391 52.0965 4.21812 52.594 5.296C53.1351 6.50003 53.4022 7.8092 53.376 9.129C53.3903 10.0022 53.2819 10.873 53.054 11.716C52.8486 12.4343 52.539 13.1186 52.135 13.747C51.7155 14.3887 51.2299 14.9847 50.686 15.525C50.1173 16.095 49.481 16.6877 48.777 17.303C48.163 17.827 47.665 18.2887 47.283 18.688C46.9291 19.0495 46.6202 19.4524 46.363 19.888C46.1327 20.2899 45.9696 20.7266 45.88 21.181C45.7791 21.7449 45.7329 22.3172 45.742 22.89V24.09L40.321 24.096ZM39.402 30.516C39.3966 30.0409 39.4899 29.5698 39.676 29.1326C39.8621 28.6954 40.1369 28.3015 40.483 27.976C40.8221 27.6325 41.2274 27.3613 41.6742 27.1788C42.1211 26.9963 42.6003 26.9062 43.083 26.914C44.0407 26.9051 44.9643 27.2696 45.658 27.93C46.0105 28.2417 46.2913 28.6259 46.4812 29.0565C46.6711 29.487 46.7655 29.9535 46.758 30.424C46.7632 30.899 46.6698 31.3698 46.4837 31.8069C46.2977 32.2439 46.0229 32.6376 45.677 32.963C45.338 33.3067 44.9328 33.578 44.4859 33.7606C44.0389 33.9431 43.5596 34.0331 43.077 34.025C42.5966 34.0269 42.1207 33.9331 41.677 33.749C41.2461 33.5731 40.8494 33.323 40.505 33.01C40.1644 32.6985 39.8906 32.3213 39.7 31.901C39.5 31.4665 39.3983 30.9933 39.402 30.515V30.516Z" fill="#211915"/>
</g>
<g id="Group 1505">
<path id="Path 2007" d="M56.4549 30.375L56.9499 29.497C57.1347 29.1624 57.3492 28.8451 57.5909 28.549C57.803 28.2918 58.0451 28.0609 58.3119 27.861C58.5865 27.6583 58.8851 27.4904 59.2009 27.361C59.5803 27.2073 59.9707 27.0823 60.3689 26.987L61.9689 26.587C62.4016 26.4924 62.8197 26.3401 63.2119 26.134C63.6266 25.9021 63.965 25.5547 64.1858 25.134C64.5156 24.5833 64.6191 23.9263 64.4749 23.301C64.3863 22.9727 64.2286 22.6672 64.0124 22.4048C63.7961 22.1425 63.5262 21.9295 63.2209 21.78C62.8953 21.5883 62.5319 21.4699 62.1559 21.433C61.8064 21.4017 61.4543 21.4401 61.1199 21.546C60.7863 21.6515 60.4775 21.8232 60.2119 22.051C59.9418 22.2809 59.7085 22.5506 59.5199 22.851L56.8309 20.978C57.2947 20.3335 57.8705 19.7777 58.5309 19.337C59.1332 18.9376 59.8095 18.6631 60.5199 18.53C61.2304 18.3994 61.9593 18.4048 62.6679 18.546C63.4257 18.6964 64.1535 18.9711 64.8219 19.359C65.4608 19.717 66.039 20.174 66.5349 20.713C67.0037 21.2194 67.371 21.8111 67.6168 22.456C67.8576 23.096 67.9542 23.7813 67.8999 24.463C67.8308 25.2185 67.5952 25.9494 67.2099 26.603C66.9707 27.0426 66.6711 27.4465 66.3199 27.803C66.0147 28.1043 65.6666 28.3587 65.2869 28.558C64.8961 28.7598 64.4851 28.92 64.0609 29.036C63.6155 29.1586 63.1299 29.274 62.6039 29.382C62.1492 29.47 61.7699 29.5593 61.4659 29.65C61.1866 29.7306 60.918 29.8444 60.6659 29.989C60.4375 30.1248 60.2328 30.2971 60.0599 30.499C59.8503 30.7524 59.6655 31.0253 59.5079 31.314L59.1699 31.914L56.4549 30.375ZM54.1849 33.325C54.3161 33.086 54.4956 32.877 54.712 32.7112C54.9284 32.5454 55.177 32.4264 55.4419 32.362C55.7087 32.2863 55.9881 32.2657 56.2631 32.3013C56.5381 32.3368 56.8031 32.4279 57.0419 32.569C57.5229 32.8376 57.8813 33.2819 58.0419 33.809C58.1304 34.0649 58.1628 34.3369 58.1367 34.6064C58.1107 34.876 58.0268 35.1367 57.8909 35.371C57.7595 35.6098 57.58 35.8188 57.3636 35.9846C57.1472 36.1504 56.8987 36.2694 56.6339 36.334C56.367 36.4096 56.0876 36.4303 55.8126 36.3947C55.5376 36.3591 55.2726 36.268 55.0339 36.127C54.7923 35.9911 54.5804 35.8082 54.4109 35.589C54.2448 35.3794 54.1165 35.1425 54.0319 34.889C53.9493 34.6367 53.9186 34.3704 53.9419 34.106C53.964 33.8305 54.047 33.5634 54.1849 33.324V33.325Z" fill="#211915"/>
</g>
<g id="Group 1506">
<path id="Path 2008" d="M27.778 31.1731L27.22 30.3341C27.0049 30.0184 26.8192 29.6837 26.665 29.3341C26.5323 29.0274 26.436 28.7063 26.378 28.3771C26.3204 28.039 26.3049 27.6951 26.332 27.3531C26.3662 26.944 26.4304 26.5379 26.524 26.1381L26.881 24.5251C26.9923 24.0945 27.0452 23.6509 27.038 23.2061C27.0012 22.652 26.7935 22.1229 26.4436 21.6917C26.0937 21.2604 25.6187 20.9483 25.084 20.7981C24.7513 20.7297 24.4077 20.7336 24.0767 20.8095C23.7456 20.8855 23.4347 21.0316 23.165 21.2381C22.8478 21.4447 22.5793 21.7176 22.378 22.0381C22.1931 22.3373 22.0691 22.67 22.013 23.0171C21.957 23.3638 21.9713 23.7181 22.055 24.0591C22.1378 24.4039 22.2727 24.734 22.455 25.0381L19.591 26.6101C19.2242 25.9038 18.9871 25.1373 18.891 24.3471C18.8068 23.6272 18.8666 22.8977 19.067 22.2011C19.2699 21.5054 19.6021 20.854 20.046 20.2811C20.5199 19.6696 21.0912 19.1402 21.737 18.7141C22.342 18.3021 23.0086 17.9889 23.712 17.7861C24.3731 17.5939 25.065 17.5304 25.75 17.5991C26.4276 17.6709 27.0807 17.8926 27.662 18.2481C28.304 18.6497 28.8482 19.1895 29.255 19.8281C29.54 20.2407 29.7652 20.6915 29.924 21.1671C30.055 21.5784 30.1247 22.0066 30.131 22.4381C30.1348 22.8797 30.0926 23.3204 30.005 23.7531C29.9143 24.2078 29.799 24.6951 29.659 25.2151C29.5323 25.6625 29.4413 26.0431 29.386 26.3571C29.3319 26.6434 29.3128 26.9352 29.329 27.2261C29.3467 27.4916 29.4078 27.7524 29.51 27.9981C29.6411 28.2999 29.8012 28.5883 29.988 28.8591L30.37 29.4331L27.778 31.1731ZM29.378 34.5351C29.2242 34.3094 29.1189 34.0542 29.0688 33.7857C29.0187 33.5172 29.0249 33.2412 29.087 32.9751C29.1391 32.7024 29.2456 32.443 29.4003 32.2125C29.5549 31.9819 29.7545 31.7848 29.987 31.6331C30.4408 31.3222 30.9977 31.1999 31.54 31.2921C31.8079 31.3277 32.0649 31.4211 32.2932 31.5657C32.5214 31.7104 32.7155 31.903 32.862 32.1301C33.0157 32.3559 33.1211 32.6111 33.1713 32.8796C33.2216 33.1481 33.2157 33.424 33.154 33.6901C33.0693 34.0989 32.8667 34.4739 32.5714 34.7688C32.2761 35.0638 31.9008 35.2659 31.492 35.3501C31.2287 35.4045 30.958 35.4123 30.692 35.3731C30.4304 35.3336 30.1796 35.241 29.955 35.1011C29.7247 34.9578 29.5288 34.7656 29.381 34.5381L29.378 34.5351Z" fill="#211915"/>
</g>
</g>
<path id="Color Overlay" d="M1.00002 43.56C1.00077 34.8431 3.69882 26.3401 8.72396 19.2174C13.7491 12.0948 20.8551 6.70171 29.067 3.778C29.1298 4.08506 29.2187 4.38607 29.333 4.6779C20.2384 7.88522 12.5623 14.1905 7.64956 22.4889C2.7368 30.7874 0.900608 40.5496 2.46273 50.0658C4.02485 59.5821 8.88567 68.2454 16.1936 74.5378C23.5015 80.8301 32.7904 84.3503 42.4331 84.4819C52.0758 84.6134 61.4574 81.3477 68.9342 75.257C76.411 69.1663 81.5062 60.639 83.3273 51.1689C85.1484 41.6988 83.5792 31.8899 78.8946 23.4606C74.21 15.0313 66.7088 8.51905 57.705 5.06486C57.829 4.77786 57.9294 4.48125 58.005 4.1779C65.2002 6.89124 71.5157 11.5219 76.2673 17.568C81.0189 23.6142 84.0253 30.845 84.961 38.4777C85.8966 46.1104 84.7257 53.8536 81.5751 60.8683C78.4245 67.8831 73.4145 73.902 67.0877 78.2729C60.7609 82.6438 53.3586 85.2001 45.6828 85.6647C38.0071 86.1293 30.3506 84.4845 23.5427 80.9086C16.7349 77.3328 11.0354 71.9621 7.06179 65.3786C3.08814 58.795 0.991857 51.2498 1.00002 43.56ZM33.467 79.2309C33.522 75.3819 33.567 72.3689 33.567 72.3049C33.5507 69.9783 33.7179 67.6542 34.067 65.3539C30.267 64.5119 26.938 63.3478 24.677 60.5888C23.6053 59.1713 23.0805 57.4151 23.199 55.642C23.861 51.942 28.956 47.8848 33.344 45.0158C32.9167 47.4477 33.4428 49.9507 34.813 52.0048C33.0374 53.2168 31.4161 54.6406 29.985 56.2448C31.999 57.9228 34.215 59.2009 38.032 57.4269C38.505 57.1499 38.976 56.896 39.446 56.675C39.469 56.662 39.491 56.6509 39.515 56.6349V56.6398C39.9251 56.4476 40.3446 56.2765 40.772 56.1269C40.7783 56.1275 40.7847 56.1275 40.791 56.1269L42.312 57.727L42.966 58.3879L43.624 57.727L45.145 56.1269H45.167C46.7758 56.7295 48.2964 57.5455 49.688 58.5529C50.8916 59.3739 52.0185 60.302 53.055 61.3258H53.062C53.076 61.3378 53.126 61.3939 53.162 61.4259C54.8127 63.0409 56.1861 64.9166 57.227 66.978C57.8634 68.2575 58.4095 69.5801 58.861 70.936C59.5083 72.5502 60.0537 74.2034 60.494 75.8859C58.5807 76.9446 56.576 77.8289 54.5041 78.528C53.9834 76.2689 53.2387 74.0673 52.281 71.956C52.239 71.864 52.197 71.763 52.152 71.674L52.325 79.186C46.1498 80.837 39.6513 80.8527 33.468 79.2319L33.467 79.2309ZM33.927 46.6308C33.9341 44.8608 34.4655 43.1327 35.454 41.6645C36.4425 40.1962 37.8439 39.0539 39.4812 38.3815C41.1185 37.7091 42.9183 37.5367 44.6534 37.8864C46.3885 38.2361 47.9811 39.092 49.2302 40.3461C50.4792 41.6002 51.3288 43.1963 51.6715 44.9328C52.0142 46.6693 51.8347 48.4684 51.1557 50.1029C50.4767 51.7375 49.3287 53.1342 47.8565 54.1169C46.3843 55.0995 44.654 55.6239 42.884 55.6239C40.5043 55.6189 38.224 54.6691 36.5443 52.9833C34.8647 51.2975 33.9233 49.0137 33.927 46.634V46.6308ZM55.036 36.1239C54.794 35.9883 54.5818 35.8053 54.412 35.5859C54.2465 35.376 54.1183 35.1392 54.033 34.8859C53.9509 34.6336 53.9205 34.3673 53.944 34.1029C53.9659 33.8288 54.0479 33.5628 54.184 33.3239C54.3154 33.085 54.4949 32.8759 54.7113 32.7101C54.9277 32.5443 55.1762 32.4256 55.441 32.361C55.7079 32.2856 55.9873 32.2652 56.2624 32.3009C56.5374 32.3367 56.8023 32.4279 57.041 32.569C57.5219 32.8374 57.8802 33.2811 58.041 33.8078C58.1298 34.0638 58.1623 34.3361 58.1363 34.6059C58.1102 34.8756 58.0262 35.1365 57.89 35.3708C57.7586 35.6096 57.579 35.8185 57.3626 35.9843C57.1463 36.1501 56.8978 36.2692 56.633 36.3339C56.4485 36.3842 56.2583 36.41 56.067 36.4108C55.7044 36.4083 55.3488 36.3104 55.036 36.1269V36.1239ZM30.703 35.3708C30.4415 35.331 30.1907 35.2385 29.966 35.0988C29.732 34.9555 29.5326 34.7623 29.382 34.5329C29.228 34.3073 29.1224 34.0522 29.0722 33.7836C29.0219 33.5151 29.028 33.2389 29.09 32.9728C29.1422 32.7 29.2487 32.4406 29.4033 32.2099C29.558 31.9791 29.7575 31.7817 29.99 31.6298C30.4438 31.3189 31.0007 31.1968 31.5431 31.289C31.8108 31.3245 32.0676 31.4177 32.2957 31.5624C32.5238 31.7071 32.7178 31.8998 32.864 32.1269C33.0177 32.3527 33.123 32.6079 33.1734 32.8764C33.2238 33.1448 33.2182 33.4207 33.157 33.6869C33.1044 33.9595 32.9977 34.2186 32.8431 34.4491C32.6885 34.6797 32.4892 34.8769 32.257 35.029C32.0274 35.184 31.7695 35.2923 31.498 35.3478C31.3436 35.3788 31.1865 35.3947 31.029 35.3949C30.919 35.3956 30.8091 35.3886 30.7 35.3739L30.703 35.3708ZM41.679 33.7458C41.2478 33.57 40.8507 33.3201 40.506 33.007C40.1657 32.6953 39.8919 32.318 39.701 31.8979C39.5005 31.4638 39.3981 30.991 39.401 30.5129C39.3957 30.0377 39.4891 29.5668 39.6751 29.1296C39.8612 28.6924 40.136 28.2984 40.482 27.9728C40.8211 27.6293 41.2264 27.358 41.6732 27.1755C42.1201 26.9929 42.5993 26.9029 43.082 26.9108C44.0396 26.902 44.963 27.2661 45.657 27.9259C46.0096 28.2378 46.2905 28.6222 46.4804 29.0529C46.6703 29.4836 46.7647 29.9502 46.757 30.4208C46.7621 30.8958 46.6687 31.3666 46.4826 31.8036C46.2966 32.2406 46.0219 32.6344 45.676 32.9599C45.337 33.3035 44.9317 33.5747 44.4848 33.7572C44.0379 33.9398 43.5587 34.0299 43.076 34.0219C42.5964 34.0242 42.1212 33.9312 41.678 33.748L41.679 33.7458ZM56.456 30.373L56.95 29.4948C57.135 29.1601 57.3498 28.8428 57.592 28.5468C58.0208 28.0217 58.5748 27.6128 59.203 27.3578C59.5822 27.2043 59.9722 27.0792 60.37 26.9838L61.965 26.5788C62.3982 26.4845 62.8166 26.3322 63.209 26.1259C63.6237 25.894 63.9621 25.5466 64.183 25.1259C64.5134 24.5755 64.6174 23.9184 64.473 23.2929C64.3843 22.9645 64.2264 22.6589 64.01 22.3964C63.7935 22.1339 63.5235 21.9206 63.218 21.7709C62.8925 21.5793 62.529 21.4612 62.153 21.425C61.8036 21.3937 61.4515 21.4321 61.117 21.538C60.7835 21.6435 60.4746 21.8152 60.209 22.0429C59.939 22.2728 59.7057 22.5427 59.5171 22.8429L56.83 20.9799C57.294 20.3357 57.8698 19.7797 58.5301 19.3388C59.1324 18.9394 59.8087 18.6651 60.519 18.5319C61.2292 18.401 61.9579 18.4063 62.666 18.5478C63.4243 18.6981 64.1524 18.973 64.821 19.361C65.46 19.719 66.0382 20.176 66.534 20.715C67.0029 21.2218 67.3702 21.8137 67.6161 22.4589C67.8565 23.0987 67.9531 23.7837 67.899 24.465C67.8301 25.2205 67.5949 25.9512 67.21 26.6049C66.9704 27.0445 66.6705 27.4483 66.319 27.8049C66.0142 28.1066 65.6661 28.3612 65.286 28.56C64.8953 28.7621 64.4843 28.9227 64.06 29.039C63.6154 29.1616 63.13 29.2769 62.604 29.3849C62.1494 29.4729 61.77 29.5623 61.466 29.653C61.1868 29.7336 60.9182 29.8473 60.666 29.9919C60.4376 30.1277 60.2329 30.3 60.06 30.5019C59.8502 30.7552 59.6654 31.028 59.508 31.3168L59.17 31.9169L56.456 30.373ZM27.22 30.332C27.0048 30.0163 26.8191 29.6815 26.665 29.332C26.5319 29.025 26.4353 28.7034 26.377 28.3739C26.3197 28.0361 26.3042 27.6926 26.331 27.351C26.366 26.9419 26.4305 26.5357 26.524 26.1359L26.88 24.5229C26.9919 24.0924 27.0447 23.6485 27.037 23.2038C27.0002 22.6496 26.7926 22.1206 26.4426 21.6894C26.0927 21.2581 25.6177 20.9459 25.083 20.7958C24.7505 20.7279 24.4074 20.7322 24.0767 20.8083C23.746 20.8843 23.4354 21.0306 23.166 21.237C22.8486 21.4432 22.58 21.716 22.3791 22.0368C22.1939 22.3358 22.0698 22.6686 22.014 23.0158C21.9578 23.3627 21.9721 23.7177 22.0561 24.059C22.1389 24.4038 22.2737 24.7339 22.456 25.038L19.593 26.6088C19.2263 25.9027 18.9892 25.1366 18.893 24.3468C18.809 23.6269 18.8687 22.8975 19.069 22.2008C19.272 21.5054 19.6042 20.8545 20.048 20.2819C20.5216 19.6698 21.093 19.1399 21.739 18.7138C22.3445 18.3019 23.0115 17.9887 23.715 17.7858C24.3759 17.5941 25.0674 17.5309 25.752 17.5998C26.4297 17.6714 27.0828 17.8933 27.664 18.2489C28.3063 18.6504 28.8509 19.1901 29.258 19.8288C29.5432 20.2412 29.7685 20.6922 29.927 21.1679C30.0574 21.5772 30.1271 22.0033 30.134 22.4328C30.1383 22.8743 30.0961 23.3153 30.008 23.748C29.918 24.2026 29.8027 24.6899 29.662 25.2099C29.5353 25.6572 29.444 26.038 29.388 26.352C29.3339 26.6379 29.3148 26.9293 29.331 27.2199C29.3484 27.4854 29.4096 27.7463 29.512 27.9919C29.6428 28.2941 29.8029 28.5829 29.99 28.8539L30.372 29.4269L27.779 31.1679L27.22 30.332ZM40.32 24.0929V22.3368C40.3136 21.672 40.3675 21.0081 40.481 20.3529C40.5828 19.7811 40.7505 19.223 40.981 18.6899C41.2248 18.1462 41.5341 17.6345 41.902 17.1659C42.3456 16.6079 42.8296 16.083 43.35 15.5959L45.42 13.6098C45.995 13.0947 46.4979 12.5045 46.915 11.8549C47.3957 11.0154 47.6051 10.0478 47.5145 9.08464C47.4239 8.12152 47.0378 7.20992 46.409 6.47477C45.9943 6.0536 45.494 5.72647 44.942 5.5153C44.3899 5.30414 43.7989 5.21399 43.209 5.2509C42.5517 5.24107 41.9002 5.37494 41.3 5.64299C40.7445 5.89663 40.2446 6.25755 39.829 6.705C39.4144 7.15298 39.0935 7.67913 38.885 8.25285C38.6723 8.83082 38.5486 9.43779 38.518 10.0529L32.861 9.54484C33.014 8.16909 33.4116 6.83176 34.035 5.59587C34.6063 4.47382 35.3957 3.47714 36.357 2.66398C37.3206 1.85561 38.4285 1.23676 39.622 0.840008C40.8972 0.416511 42.2334 0.205978 43.577 0.216961C44.8491 0.209429 46.1142 0.404098 47.325 0.793866C48.4676 1.1577 49.5296 1.73789 50.453 2.50285C51.3635 3.26463 52.0937 4.21882 52.591 5.2968C53.1326 6.50072 53.4001 7.80992 53.374 9.1298C53.3881 10.0029 53.2797 10.8739 53.052 11.717C52.8461 12.4352 52.5362 13.1195 52.132 13.748C51.7127 14.3895 51.2274 14.9853 50.684 15.5258C50.1154 16.0951 49.479 16.6879 48.775 17.3039C48.161 17.8279 47.663 18.2896 47.281 18.6889C46.9268 19.0503 46.6176 19.4532 46.36 19.8888C46.1303 20.2909 45.9675 20.7275 45.878 21.1818C45.7766 21.7457 45.7301 22.318 45.739 22.8908V24.091L40.32 24.0929Z" fill="white"/>
</g>
</svg>
