<svg width="83" height="84" viewBox="0 0 83 84" fill="none" xmlns="http://www.w3.org/2000/svg">
<g id="Objeto inteligente vectorial">
<g id="Objeto inteligente vectorial_2">
<g id="Group 1490">
<path id="Path 1994" d="M41.499 84.01C18.616 84.01 -0.000976562 65.169 -0.000976562 42.01C-0.000976562 18.851 18.615 0.0100098 41.499 0.0100098C64.383 0.0100098 82.999 18.852 82.999 42.01C82.999 65.168 64.382 84.01 41.499 84.01ZM41.499 0.943008C19.125 0.943008 0.92202 19.366 0.92202 42.01C0.92202 64.654 19.122 83.077 41.499 83.077C63.876 83.077 82.078 64.655 82.078 42.01C82.078 19.365 63.874 0.943008 41.499 0.943008Z" fill="black"/>
</g>
<g id="Group 1493">
<g id="Group 1492">
<g id="Group 1491">
<path id="Path 1995" d="M18.7959 44.0599C18.7953 44.3703 18.8894 44.6734 19.0656 44.9289C19.2418 45.1844 19.4916 45.3801 19.7819 45.4899L22.4819 46.4899C22.6912 45.9854 22.9969 45.5264 23.3819 45.1389C23.7669 44.7472 24.226 44.4361 24.7325 44.2237C25.239 44.0113 25.7827 43.9019 26.3319 43.9019C26.8811 43.9019 27.4248 44.0113 27.9313 44.2237C28.4378 44.4361 28.8969 44.7472 29.2819 45.1389L37.5469 53.5029C38.1001 54.0663 38.486 54.7723 38.6615 55.5421C38.837 56.312 38.7953 57.1154 38.5409 57.8629C39.1352 58.3041 39.8408 58.5708 40.5783 58.6329C41.3159 58.6951 42.0561 58.5504 42.7159 58.2149L54.0819 52.4309C54.9536 51.9826 55.6351 51.236 56.0022 50.3272C56.3694 49.4184 56.3976 48.4079 56.0819 47.4799H56.0659C55.3184 47.4802 54.58 47.315 53.904 46.996C53.2279 46.6769 52.6309 46.2121 52.1559 45.6349L44.3249 36.1909L43.2189 37.3099C42.8401 37.6944 42.3887 37.9997 41.8908 38.2081C41.393 38.4165 40.8586 38.5238 40.3189 38.5238C39.7792 38.5238 39.2449 38.4165 38.747 38.2081C38.2491 37.9997 37.7977 37.6944 37.4189 37.3099L37.0439 36.9279C36.2737 36.145 35.8421 35.0907 35.8421 33.9924C35.8421 32.8942 36.2737 31.8399 37.0439 31.0569L40.1809 27.8819L39.5249 27.0909C38.949 26.3848 38.1483 25.8977 37.2565 25.7108C36.3648 25.5239 35.4359 25.6485 34.6249 26.0639L26.0939 30.4399L20.8669 28.3119C20.6371 28.22 20.3882 28.1861 20.1421 28.2131C19.8961 28.2401 19.6605 28.3273 19.4561 28.467C19.2517 28.6066 19.0849 28.7944 18.9703 29.0138C18.8556 29.2332 18.7968 29.4774 18.7989 29.7249V44.0599H18.7959Z" fill="black"/>
<path id="Path 1996" d="M64.2049 43.438V31.711C64.2067 31.3095 64.0492 30.9237 63.7668 30.6383C63.4844 30.353 63.1003 30.1913 62.6989 30.189H56.0309L49.1729 25.177C48.4011 24.6132 47.4525 24.3457 46.4999 24.4232C45.5474 24.5006 44.6544 24.9179 43.9839 25.599L40.8839 28.737L37.8139 31.844C37.2487 32.4189 36.932 33.1928 36.932 33.999C36.932 34.8051 37.2487 35.5791 37.8139 36.154L38.1909 36.534C38.4684 36.8173 38.7998 37.0424 39.1654 37.1961C39.5311 37.3498 39.9237 37.4289 40.3204 37.4289C40.717 37.4289 41.1097 37.3498 41.4753 37.1961C41.841 37.0424 42.1723 36.8173 42.4499 36.534L44.3949 34.566L52.9859 44.93C53.6121 45.6881 54.4957 46.189 55.4679 46.337C55.6644 46.3678 55.863 46.3831 56.0619 46.383C56.3525 46.3834 56.6422 46.3519 56.9259 46.289L63.0259 44.929C63.3626 44.8514 63.6629 44.6615 63.8772 44.3905C64.0915 44.1195 64.2071 43.7835 64.2049 43.438Z" fill="black"/>
<path id="Path 1997" d="M32.414 58.698C32.6985 58.9872 33.0377 59.217 33.4119 59.3738C33.7861 59.5306 34.1877 59.6114 34.5935 59.6114C34.9992 59.6114 35.4008 59.5306 35.775 59.3738C36.1492 59.217 36.4885 58.9872 36.773 58.698C37.351 58.1092 37.6748 57.317 37.6748 56.492C37.6748 55.6669 37.351 54.8748 36.773 54.286L28.505 45.921C28.2205 45.6317 27.8812 45.402 27.507 45.2451C27.1329 45.0883 26.7312 45.0076 26.3255 45.0076C25.9197 45.0076 25.5181 45.0883 25.1439 45.2451C24.7697 45.402 24.4305 45.6317 24.146 45.921C23.5672 46.5094 23.2429 47.3017 23.2429 48.127C23.2429 48.9523 23.5672 49.7445 24.146 50.333L32.414 58.698Z" fill="black"/>
</g>
</g>
</g>
</g>
<path id="Color Overlay" d="M0 42.01C0 18.852 18.617 0.0100098 41.5 0.0100098C64.383 0.0100098 83 18.852 83 42.01C83 65.168 64.383 84.01 41.5 84.01C18.617 84.01 0 65.169 0 42.01ZM0.923004 42.01C0.923004 64.655 19.123 83.0769 41.5 83.0769C63.877 83.0769 82.078 64.655 82.078 42.01C82.078 19.365 63.878 0.943115 41.5 0.943115C19.122 0.943115 0.921997 19.366 0.921997 42.01H0.923004ZM32.415 58.698L24.15 50.333C23.7104 49.8861 23.4143 49.3182 23.2998 48.7019C23.1852 48.0856 23.2574 47.449 23.507 46.874C23.6602 46.5191 23.8783 46.1958 24.15 45.9209C24.4346 45.6316 24.7739 45.4019 25.1482 45.2451C25.5224 45.0883 25.9242 45.0076 26.33 45.0076C26.7358 45.0076 27.1375 45.0883 27.5118 45.2451C27.8861 45.4019 28.2254 45.6316 28.51 45.9209L36.775 54.2859C37.353 54.8747 37.6768 55.6669 37.6768 56.4919C37.6768 57.317 37.353 58.1092 36.775 58.698C36.4905 58.9874 36.1512 59.2174 35.7769 59.3743C35.4026 59.5312 35.0008 59.6118 34.595 59.6118C34.1892 59.6118 33.7874 59.5312 33.4131 59.3743C33.0388 59.2174 32.6995 58.9874 32.415 58.698ZM38.539 57.866C38.7935 57.1185 38.8353 56.315 38.6598 55.5452C38.4842 54.7753 38.0983 54.0694 37.545 53.5061L29.28 45.1411C28.895 44.7494 28.4359 44.4382 27.9294 44.2258C27.423 44.0134 26.8792 43.9041 26.33 43.9041C25.7808 43.9041 25.2371 44.0134 24.7306 44.2258C24.2241 44.4382 23.765 44.7494 23.38 45.1411C22.995 45.5286 22.6893 45.9874 22.48 46.4919L19.78 45.4919C19.4896 45.3821 19.2396 45.1864 19.0634 44.9307C18.8872 44.675 18.7932 44.3715 18.794 44.061V29.7329C18.7917 29.4854 18.8504 29.2414 18.9649 29.022C19.0794 28.8026 19.2462 28.6148 19.4505 28.4751C19.6548 28.3354 19.8903 28.2482 20.1364 28.2212C20.3824 28.1942 20.6312 28.2281 20.861 28.3201L26.088 30.448L34.619 26.072C35.4299 25.6566 36.3589 25.5318 37.2506 25.7188C38.1424 25.9057 38.9431 26.393 39.519 27.0991L40.174 27.8889L37.037 31.063C36.267 31.8462 35.8355 32.9007 35.8355 33.999C35.8355 35.0974 36.267 36.1518 37.037 36.9351L37.412 37.3169C37.7908 37.7012 38.2423 38.0065 38.7402 38.2148C39.238 38.4232 39.7723 38.5305 40.312 38.5305C40.8517 38.5305 41.386 38.4232 41.8838 38.2148C42.3817 38.0065 42.8332 37.7012 43.212 37.3169L44.317 36.197L52.143 45.6399C52.6181 46.217 53.2151 46.682 53.8911 47.001C54.5672 47.32 55.3055 47.4854 56.053 47.4851H56.068C56.3837 48.413 56.3554 49.4234 55.9883 50.3323C55.6212 51.2411 54.9397 51.9878 54.068 52.436L42.701 58.22C42.0412 58.5553 41.301 58.7001 40.5634 58.6379C39.8259 58.5758 39.1204 58.309 38.526 57.8679L38.539 57.866ZM55.468 46.334C54.496 46.1863 53.6124 45.6857 52.986 44.928L44.396 34.564L42.451 36.532C42.1734 36.8153 41.8421 37.0404 41.4765 37.1941C41.1108 37.3478 40.7181 37.427 40.3215 37.427C39.9249 37.427 39.5322 37.3478 39.1665 37.1941C38.8009 37.0404 38.4695 36.8153 38.192 36.532L37.815 36.1521C37.2501 35.5771 36.9335 34.8032 36.9335 33.9971C36.9335 33.191 37.2501 32.4171 37.815 31.842L40.885 28.7351L43.985 25.5969C44.6556 24.9161 45.5486 24.4991 46.5011 24.4216C47.4536 24.3442 48.4022 24.6115 49.174 25.175L56.032 30.187H62.7C62.899 30.1881 63.0958 30.2283 63.2792 30.3054C63.4626 30.3825 63.629 30.4951 63.7689 30.6365C63.9089 30.7779 64.0196 30.9454 64.0948 31.1296C64.1699 31.3139 64.2081 31.511 64.207 31.71V43.437C64.2086 43.7828 64.0922 44.1188 63.8769 44.3894C63.6616 44.66 63.3603 44.849 63.023 44.925L56.923 46.2859C56.6393 46.3486 56.3496 46.3804 56.059 46.3801C55.8607 46.3806 55.6628 46.3651 55.467 46.334H55.468Z" fill="white"/>
</g>
</svg>
