<svg width="19" height="200" viewBox="0 0 19 200" fill="none" xmlns="http://www.w3.org/2000/svg">
<g id="Objeto inteligente vectorial">
<g id="Group 1430">
<path id="Path 1934" fill-rule="evenodd" clip-rule="evenodd" d="M9.88701 136.601C10.4999 136.634 11.1017 136.428 11.567 136.028C11.7598 135.847 11.9133 135.628 12.0177 135.385C12.1222 135.141 12.1754 134.879 12.1741 134.615C12.1728 134.35 12.1169 134.088 12.0101 133.846C11.9032 133.604 11.7476 133.386 11.553 133.207C11.0631 132.797 10.4328 132.595 9.79601 132.643C9.36588 132.632 8.93828 132.712 8.54201 132.88C8.20204 133.025 7.91374 133.269 7.71501 133.58C7.52317 133.886 7.42128 134.24 7.42101 134.601C7.41845 135.128 7.61942 135.636 7.98201 136.018C8.2449 136.235 8.54806 136.398 8.8741 136.498C9.20014 136.598 9.54266 136.632 9.88201 136.599L9.88701 136.601ZM9.85901 137.39C9.02563 137.429 8.20836 137.151 7.57101 136.613C7.12859 136.169 6.84598 135.591 6.76744 134.969C6.6889 134.347 6.81888 133.716 7.13701 133.176C7.39254 132.745 7.76818 132.397 8.21801 132.176C8.7155 131.956 9.2541 131.845 9.79801 131.849C10.3523 131.843 10.9003 131.967 11.398 132.211C11.8498 132.428 12.2273 132.774 12.483 133.205C12.7197 133.64 12.8435 134.127 12.843 134.622C12.8476 135.139 12.7058 135.646 12.434 136.085C12.1679 136.507 11.786 136.843 11.334 137.054C10.8744 137.278 10.3692 137.393 9.85801 137.389L9.85901 137.39ZM12.039 145.889V144.66C12.0501 144.356 12.0133 144.053 11.93 143.76C11.8704 143.566 11.7679 143.388 11.63 143.239C11.4122 143.049 11.1571 142.907 10.881 142.822C10.5106 142.709 10.1243 142.656 9.73701 142.666C9.2489 142.642 8.76315 142.748 8.32901 142.972C8.03455 143.127 7.79965 143.375 7.66101 143.677C7.56723 144.002 7.52571 144.339 7.53801 144.677V145.901L12.039 145.889ZM12.739 146.665H6.84901V144.665C6.84279 144.326 6.86992 143.988 6.93001 143.654C6.99774 143.336 7.14461 143.041 7.35701 142.795C7.62528 142.485 7.97009 142.252 8.35701 142.117C8.80574 141.956 9.28017 141.877 9.75701 141.886C10.1634 141.876 10.5687 141.933 10.957 142.053C11.264 142.127 11.5545 142.258 11.814 142.438C12.021 142.58 12.2014 142.758 12.347 142.962C12.4847 143.177 12.5842 143.414 12.641 143.662C12.7088 143.966 12.7424 144.277 12.741 144.589L12.739 146.665ZM10.314 154.706V152.733L8.68501 153.355C8.18501 153.532 7.78501 153.663 7.46601 153.761C7.84725 153.836 8.22256 153.938 8.58901 154.067L10.314 154.706ZM12.739 156.378L6.84901 154.159V153.317L12.739 150.963V151.837L10.959 152.516V154.933L12.739 155.559V156.378ZM12.739 163.94H6.84901V163.201H12.044V160.344H12.744L12.739 163.94ZM12.739 169.719H6.84901V168.95H12.739V169.719ZM10.423 177.106H9.73201V174.657H11.917C12.213 175.007 12.448 175.404 12.612 175.832C12.7653 176.223 12.8439 176.639 12.844 177.058C12.8495 177.596 12.7217 178.127 12.472 178.604C12.2313 179.055 11.8563 179.419 11.399 179.647C10.912 179.892 10.3739 180.017 9.82901 180.013C9.27454 180.014 8.72663 179.893 8.22401 179.659C7.75695 179.442 7.36748 179.088 7.10801 178.643C6.8633 178.169 6.7406 177.641 6.75101 177.108C6.74846 176.721 6.82044 176.338 6.96301 175.978C7.08248 175.661 7.28194 175.38 7.54201 175.163C7.83426 174.964 8.16174 174.822 8.50701 174.745L8.68701 175.436C8.43834 175.509 8.20226 175.619 7.98701 175.763C7.80271 175.903 7.66192 176.092 7.58101 176.309C7.47172 176.561 7.41882 176.834 7.42601 177.109C7.41574 177.424 7.47338 177.738 7.59501 178.029C7.69512 178.259 7.83799 178.468 8.01601 178.644C8.18821 178.793 8.38255 178.913 8.59201 179.002C8.97078 179.143 9.37178 179.215 9.77601 179.215C10.229 179.238 10.6802 179.145 11.087 178.944C11.4359 178.794 11.7181 178.522 11.881 178.179C12.0525 177.838 12.1418 177.461 12.142 177.079C12.1401 176.751 12.0753 176.427 11.951 176.123C11.8549 175.864 11.7141 175.624 11.535 175.414H10.424L10.423 177.106ZM12.739 185.606H6.84901V184.834H12.739V185.606ZM12.739 193.16L6.84901 195.395V194.558L11.121 193.058C11.471 192.951 11.794 192.846 12.088 192.764C11.775 192.67 11.448 192.572 11.121 192.451L6.84901 190.883V190.106L12.739 192.357V193.16Z" fill="white"/>
<path id="Path 1935" fill-rule="evenodd" clip-rule="evenodd" d="M6.05801 3.68819V1.87219L4.54801 2.43319C4.09301 2.61019 3.71201 2.72219 3.41801 2.81319C3.77005 2.87876 4.11719 2.9683 4.45702 3.08119L6.05801 3.68819ZM8.28801 5.23219L2.83801 3.16319V2.40119L8.28801 0.221191V1.02119L6.65101 1.64219V3.88219L8.28801 4.46819V5.23219ZM5.25202 9.33219V7.81319C5.26392 7.55035 5.23009 7.28745 5.15201 7.03619C5.12669 6.95028 5.08458 6.87024 5.0281 6.80072C4.97163 6.7312 4.90192 6.67358 4.82301 6.63119C4.65169 6.51274 4.44298 6.46098 4.23615 6.48566C4.02933 6.51033 3.83866 6.60975 3.70002 6.76519C3.5096 7.00779 3.42295 7.3159 3.45901 7.62219V9.32919L5.25202 9.33219ZM8.28801 10.0322H2.83801V7.67219C2.81895 7.29875 2.87261 6.92517 2.99601 6.57219C3.09125 6.31311 3.27416 6.09554 3.51301 5.95719C3.76354 5.81742 4.04515 5.74281 4.33202 5.74019C4.69141 5.73278 5.03935 5.86672 5.30101 6.11319C5.59868 6.4259 5.78284 6.82943 5.82401 7.25919C5.88676 7.10247 5.97495 6.95719 6.08501 6.82919C6.30661 6.60452 6.55092 6.40344 6.81401 6.22919L8.28901 5.31119V6.21119L7.15401 6.92019C6.82901 7.12019 6.58401 7.28919 6.41101 7.42019C6.27067 7.52652 6.14434 7.65017 6.03502 7.78819C5.97864 7.88807 5.93305 7.99367 5.89901 8.10319C5.88357 8.23765 5.87556 8.37285 5.87501 8.50819V9.32919H8.29001L8.28801 10.0322ZM8.28801 15.0182H2.83801V11.1512H3.48901V14.3212H5.15601V11.3462H5.78901V14.3222H7.65201V11.0322H8.28801V15.0182ZM8.28801 16.9962H2.83801V16.2842H8.28801V16.9962ZM6.37501 18.6962L6.55901 17.9902C7.08654 18.1016 7.56312 18.3826 7.91601 18.7902C8.23122 19.1964 8.39621 19.6992 8.38301 20.2132C8.40236 20.7043 8.27906 21.1906 8.02802 21.6132C7.77564 21.99 7.41057 22.2774 6.98501 22.4342C6.52256 22.628 6.02541 22.7253 5.52401 22.7202C5.01309 22.733 4.50585 22.6305 4.04001 22.4202C3.64402 22.2093 3.31182 21.8961 3.07801 21.5132C2.86278 21.1093 2.74981 20.6588 2.74901 20.2012C2.73452 19.7219 2.88326 19.2518 3.17086 18.8681C3.45847 18.4844 3.86788 18.2098 4.33202 18.0892L4.50501 18.7842C4.16864 18.8725 3.86679 19.0604 3.63901 19.3232C3.44828 19.5832 3.35357 19.9012 3.37101 20.2232C3.35765 20.5911 3.46128 20.9538 3.66702 21.2592C3.87734 21.5252 4.16317 21.7215 4.48701 21.8222C4.82119 21.9374 5.17254 21.9949 5.52601 21.9922C5.93817 22.0051 6.34905 21.9399 6.73701 21.8002C7.05674 21.6865 7.33014 21.4707 7.51501 21.1862C7.68122 20.9087 7.76997 20.5917 7.77201 20.2682C7.78087 19.9034 7.65644 19.5479 7.42201 19.2682C7.14717 18.9655 6.77896 18.7634 6.37601 18.6942L6.37501 18.6962ZM8.28901 27.9292H2.83801V27.2102L7.11502 24.4002H2.83801V23.7242H8.28801V24.4402L4.01401 27.2532H8.28801L8.28901 27.9292ZM6.05901 31.9462V30.1322L4.54902 30.7072C4.09402 30.8672 3.71301 30.9932 3.41901 31.0832C3.77172 31.1519 4.11896 31.2462 4.45801 31.3652L6.05901 31.9462ZM8.28901 33.5092L2.83901 31.4522V30.6892L8.28901 28.4982V29.2982L6.65201 29.9312V32.1482L8.28901 32.7552V33.5092ZM8.28901 38.3332H2.83801V37.5992L7.11502 34.7822H2.83801V34.1012H8.28801V34.8272L4.01401 37.6372H8.28801L8.28901 38.3332ZM8.28901 40.2702H2.83801V39.5552H8.28801L8.28901 40.2702ZM8.28901 44.9322H2.83801V41.3212H3.48901V44.2282H5.18001V41.7012H5.82401V44.2292H8.28801L8.28901 44.9322ZM6.05901 51.0832V49.2612L4.54902 49.8322C4.09402 49.9772 3.71301 50.1212 3.41901 50.2052C3.77314 50.2759 4.12069 50.3763 4.45801 50.5052L6.05901 51.0832ZM8.28901 52.6272L2.83901 50.5772V49.8012L8.28901 47.6132V48.4132L6.65201 49.0422V51.2802L8.28901 51.8802V52.6272ZM8.28901 54.0052H2.83801V53.2862H8.28801L8.28901 54.0052ZM6.37601 55.7052L6.56001 54.9852C7.09458 55.0933 7.57458 55.3847 7.91702 55.8092C8.23563 56.209 8.40121 56.7093 8.38402 57.2202C8.40304 57.7132 8.27981 58.2013 8.02901 58.6262C7.76843 58.9953 7.40602 59.2806 6.98601 59.4472C6.52347 59.64 6.02604 59.7349 5.52501 59.7262C5.01394 59.7407 4.50632 59.6381 4.04101 59.4262C3.63941 59.2214 3.3054 58.9051 3.07901 58.5152C2.86298 58.1127 2.74995 57.663 2.75001 57.2062C2.73626 56.7191 2.88587 56.2414 3.17501 55.8492C3.47085 55.4784 3.87606 55.2104 4.33301 55.0832L4.50601 55.7922C4.16803 55.8785 3.86533 56.0679 3.64001 56.3342C3.45083 56.5911 3.35616 56.9055 3.37201 57.2242C3.35886 57.59 3.46177 57.9505 3.66601 58.2542C3.87094 58.527 4.15858 58.7262 4.48601 58.8222C4.81722 58.9504 5.16987 59.0143 5.52501 59.0102C5.9377 59.0207 6.34862 58.9528 6.73601 58.8102C7.05968 58.7 7.33479 58.4804 7.51401 58.1892C7.68192 57.9135 7.77083 57.597 7.77102 57.2742C7.77987 56.9094 7.65544 56.5539 7.42101 56.2742C7.14233 55.979 6.7752 55.7824 6.37501 55.7142L6.37601 55.7052ZM8.28801 64.9422H2.83801V64.2012L7.11502 61.3952H2.83801V60.7212H8.28801V61.4302L4.01401 64.2402H8.28801V64.9422ZM8.28801 69.9102H2.83801V66.0182H3.48901V69.1792H5.15601V66.2242H5.78901V69.1792H7.65201V65.8952H8.28801V69.9102ZM7.65201 74.6262V73.4762C7.66341 73.1974 7.62722 72.9188 7.54501 72.6522C7.49471 72.4716 7.39821 72.3072 7.26501 72.1752C7.0765 71.9834 6.83824 71.848 6.57701 71.7842C6.23653 71.678 5.88042 71.6307 5.52401 71.6442C5.06841 71.6135 4.61322 71.7097 4.20901 71.9222C3.93388 72.065 3.71815 72.3006 3.60001 72.5872C3.50651 72.8851 3.46855 73.1976 3.48801 73.5092V74.6272L7.65201 74.6262ZM8.28801 75.3382H2.83801V73.4982C2.82805 73.1767 2.85624 72.8551 2.92201 72.5402C2.9868 72.2472 3.11896 71.9733 3.30801 71.7402C3.56502 71.4578 3.88747 71.2428 4.24701 71.1142C4.65843 70.9579 5.09598 70.8818 5.53601 70.8902C5.90715 70.8946 6.27643 70.9432 6.63601 71.0352C6.91599 71.1229 7.18226 71.2494 7.42701 71.4112C7.62702 71.5408 7.7974 71.7112 7.92701 71.9112C8.05213 72.1037 8.14281 72.3166 8.19501 72.5402C8.25959 72.8188 8.29048 73.1042 8.28701 73.3902L8.28801 75.3382ZM8.28801 80.7482H2.83801V80.0012L7.11502 77.1882H2.83801V76.5042H8.28801V77.2352L4.01401 80.0532H8.28801V80.7482ZM8.28801 85.7202H2.83801V81.8312H3.48901V85.0012H5.15601V82.0272H5.78901V85.0012H7.65201V81.7012H8.28801V85.7202ZM8.28801 88.9382H3.48801V90.7012H2.83801V86.4462H3.48901V88.2222H8.28901L8.28801 88.9382ZM8.28801 95.7192H2.83801V94.9732L7.11502 92.1732H2.83801V91.4712H8.28801V92.2012L4.01401 95.0232H8.28801V95.7192ZM8.28801 97.6612H2.83801V96.9512H8.28801V97.6612ZM5.25202 102.451V100.921C5.26167 100.666 5.22786 100.411 5.15201 100.167C5.09099 99.9962 4.97538 99.85 4.82301 99.7512C4.67679 99.6604 4.50703 99.6149 4.33501 99.6202C4.21472 99.6125 4.09433 99.6336 3.98376 99.6816C3.87318 99.7295 3.77559 99.8031 3.69901 99.8962C3.51167 100.143 3.42547 100.451 3.45801 100.759V102.451H5.25202ZM8.28801 103.167H2.83801V100.783C2.82025 100.412 2.87389 100.04 2.99601 99.6892C3.09717 99.4415 3.27947 99.2356 3.51301 99.1052C3.75999 98.9559 4.04341 98.8777 4.33202 98.8792C4.51092 98.8722 4.68934 98.9023 4.85609 98.9675C5.02283 99.0327 5.1743 99.1317 5.30101 99.2582C5.60638 99.5632 5.79199 99.9678 5.82401 100.398C5.8916 100.239 5.97932 100.09 6.08501 99.9532C6.30201 99.7281 6.54702 99.5318 6.81401 99.3692L8.28901 98.4452V99.3352L7.15401 100.035C6.82901 100.24 6.58401 100.435 6.41101 100.55C6.2673 100.653 6.14046 100.778 6.03502 100.92C5.97184 101.017 5.92583 101.125 5.89901 101.237C5.88324 101.367 5.87523 101.498 5.87501 101.629V102.45H8.29001L8.28801 103.167ZM8.28801 108.15H2.83801V104.269H3.48901V107.431H5.15601V104.477H5.78901V107.431H7.65201V104.144H8.28801V108.15ZM5.43602 112.428V111.068C5.46779 110.722 5.37759 110.376 5.18102 110.089C5.08643 109.991 4.97176 109.914 4.84478 109.863C4.71779 109.813 4.58146 109.79 4.44501 109.797C4.23844 109.789 4.03474 109.848 3.86401 109.964C3.70715 110.075 3.59282 110.236 3.54001 110.42C3.49664 110.634 3.47951 110.852 3.48901 111.069V112.429L5.43602 112.428ZM8.28801 113.16H2.83801V111.127C2.83934 110.854 2.8557 110.581 2.88701 110.31C2.92656 110.077 3.02005 109.856 3.16001 109.665C3.28674 109.473 3.46435 109.32 3.67301 109.223C3.90956 109.118 4.1662 109.066 4.42501 109.07C4.85369 109.058 5.27172 109.205 5.59801 109.483C5.78204 109.7 5.91979 109.953 6.00284 110.225C6.08589 110.498 6.11249 110.784 6.08101 111.067V112.427H8.28801V113.16ZM2.83801 115.037V114.343H5.99701C6.43662 114.329 6.87559 114.386 7.29701 114.512C7.62641 114.639 7.90361 114.873 8.08401 115.176C8.29871 115.555 8.40267 115.986 8.38402 116.42C8.39752 116.846 8.3087 117.269 8.12501 117.654C7.9571 117.968 7.68679 118.215 7.35901 118.354C6.92001 118.497 6.45931 118.561 5.99801 118.544H2.83801V117.861H5.99701C6.3484 117.868 6.69876 117.821 7.03601 117.722C7.25455 117.633 7.43641 117.472 7.55201 117.266C7.67733 117.031 7.74065 116.768 7.73601 116.501C7.75906 116.301 7.73884 116.098 7.67673 115.907C7.61462 115.715 7.51207 115.539 7.37601 115.39C6.97262 115.113 6.48338 114.99 5.99701 115.043L2.83801 115.037ZM6.53801 123.804L6.47501 123.126C6.71304 123.096 6.94335 123.022 7.15401 122.907C7.33881 122.768 7.48451 122.583 7.57701 122.371C7.68343 122.109 7.73777 121.828 7.73701 121.545C7.74426 121.3 7.70455 121.056 7.62002 120.825C7.55298 120.644 7.43869 120.484 7.28901 120.362C7.15263 120.26 6.98562 120.206 6.81501 120.21C6.65363 120.202 6.49535 120.257 6.37301 120.362C6.22315 120.49 6.10707 120.653 6.03502 120.836C5.99102 120.984 5.89901 121.301 5.79001 121.791C5.70472 122.149 5.58655 122.499 5.43701 122.835C5.31879 123.062 5.14464 123.255 4.93102 123.396C4.72755 123.526 4.49009 123.591 4.24901 123.585C3.9784 123.584 3.7142 123.503 3.49001 123.351C3.23679 123.197 3.0414 122.964 2.93401 122.687C2.81083 122.368 2.74842 122.029 2.75001 121.687C2.74334 121.33 2.81147 120.976 2.95001 120.647C3.06486 120.362 3.26276 120.118 3.51801 119.947C3.77108 119.776 4.07178 119.69 4.37702 119.7L4.42601 120.37C4.27883 120.374 4.13403 120.409 4.00033 120.47C3.86663 120.532 3.74679 120.62 3.64802 120.729C3.45978 121.003 3.36925 121.332 3.39101 121.663C3.36087 121.997 3.44325 122.331 3.62501 122.612C3.69338 122.701 3.78094 122.774 3.88118 122.824C3.98142 122.875 4.09177 122.902 4.20401 122.904C4.29513 122.91 4.38625 122.893 4.46976 122.856C4.55326 122.82 4.62673 122.763 4.68401 122.692C4.8875 122.363 5.02347 121.997 5.08401 121.615C5.16196 121.216 5.27335 120.824 5.41702 120.444C5.5385 120.167 5.7297 119.926 5.97201 119.744C6.20423 119.595 6.4741 119.515 6.75001 119.514C7.04168 119.524 7.32608 119.608 7.57601 119.758C7.83618 119.935 8.04356 120.178 8.17601 120.463C8.31356 120.793 8.38328 121.146 8.38101 121.503C8.3906 121.92 8.31964 122.335 8.17201 122.725C8.03726 123.04 7.81298 123.309 7.52701 123.497C7.22453 123.674 6.88467 123.777 6.53502 123.797L6.53801 123.804ZM14.302 39.6272V37.8272L12.786 38.3882C12.334 38.5502 11.955 38.6692 11.665 38.7672C12.0183 38.8348 12.3644 38.9352 12.699 39.0672L14.302 39.6272ZM16.543 41.2012L11.082 39.1442V38.3772L16.543 36.1892V36.9952L14.881 37.6252V39.8522L16.543 40.4442V41.2012ZM16.543 42.5642H11.082V41.8492H16.543V42.5642ZM15.889 47.0012V45.6522C15.8956 45.4953 15.8892 45.3381 15.87 45.1822C15.8434 45.0375 15.7952 44.8976 15.727 44.7672C15.6505 44.6486 15.5405 44.5553 15.411 44.4992C15.2689 44.4266 15.1104 44.3921 14.951 44.3992C14.7668 44.3916 14.5854 44.4462 14.436 44.5542C14.2831 44.652 14.1698 44.8008 14.116 44.9742C14.0411 45.2298 14.0104 45.4963 14.025 45.7622V47.0012H15.889ZM13.381 47.0012V45.8302C13.3862 45.6071 13.3627 45.3843 13.311 45.1672C13.2949 45.086 13.2628 45.0089 13.2166 44.9402C13.1705 44.8716 13.1111 44.8127 13.042 44.7672C12.9069 44.6617 12.7382 44.6088 12.567 44.6182C12.3971 44.6071 12.2284 44.6544 12.089 44.7522C11.9565 44.834 11.8584 44.9613 11.813 45.1102C11.7456 45.376 11.7173 45.6502 11.729 45.9242V47.0012H13.381ZM16.544 47.7132H11.082V45.6812C11.0742 45.3444 11.1326 45.0094 11.254 44.6952C11.363 44.4613 11.5401 44.2658 11.762 44.1342C11.9778 43.997 12.2273 43.9219 12.483 43.9172C12.7264 43.9169 12.9644 43.988 13.1678 44.1217C13.3711 44.2553 13.5308 44.4457 13.627 44.6692C13.7117 44.3732 13.8895 44.1123 14.134 43.9252C14.3654 43.7411 14.6557 43.6473 14.951 43.6612C15.1989 43.6606 15.4444 43.711 15.672 43.8092C15.8717 43.8992 16.0442 44.0403 16.172 44.2182C16.3115 44.3868 16.4085 44.5864 16.455 44.8002C16.5178 45.0801 16.5486 45.3663 16.547 45.6532L16.544 47.7132ZM16.544 53.9322H11.082V52.8632L14.951 51.6012L15.751 51.3452C15.551 51.2872 15.262 51.1932 14.88 51.0632L11.08 49.7682V48.8012H16.541V49.4892H11.979L16.544 51.0612V51.6872L11.9 53.2422H16.544V53.9322ZM13.892 59.2192C14.4596 59.2474 15.0161 59.0542 15.444 58.6802C15.6275 58.5215 15.7735 58.3242 15.8715 58.1023C15.9695 57.8805 16.0172 57.6397 16.011 57.3972C16.0201 57.1483 15.9739 56.9006 15.8759 56.6716C15.7779 56.4427 15.6304 56.2384 15.444 56.0732C14.9893 55.6989 14.4099 55.5103 13.822 55.5452C13.4239 55.5389 13.029 55.618 12.664 55.7772C12.3455 55.9152 12.0727 56.1405 11.877 56.4272C11.6997 56.7192 11.6092 57.0556 11.616 57.3972C11.6134 57.6348 11.6586 57.8705 11.7488 58.0904C11.8389 58.3103 11.9723 58.5098 12.141 58.6772C12.6309 59.0808 13.2598 59.2754 13.892 59.2192ZM13.881 59.9432C13.4981 59.9698 13.1137 59.9201 12.7501 59.797C12.3866 59.674 12.051 59.4799 11.763 59.2262C11.5112 58.9943 11.3123 58.7109 11.1796 58.3953C11.0469 58.0798 10.9836 57.7394 10.994 57.3972C10.9814 56.9199 11.1093 56.4494 11.362 56.0442C11.5958 55.6466 11.9444 55.329 12.362 55.1332C12.8203 54.9216 13.3214 54.8189 13.826 54.8332C14.3381 54.8168 14.8461 54.9285 15.304 55.1582C15.7271 55.3526 16.0773 55.6765 16.304 56.0832C16.5181 56.4888 16.6267 56.9416 16.62 57.4002C16.6298 57.8732 16.5035 58.339 16.256 58.7422C16.0176 59.1374 15.6651 59.4511 15.245 59.6422C14.8204 59.8454 14.3547 59.9481 13.884 59.9422L13.881 59.9432ZM16.546 63.9162H11.082V63.2102H15.889V60.5762H16.543L16.546 63.9162ZM13.894 69.1882C14.4578 69.2302 15.0154 69.0484 15.446 68.6822C15.6306 68.5173 15.777 68.3141 15.8749 68.0868C15.9729 67.8595 16.02 67.6136 16.013 67.3662C16.0204 67.1202 15.9735 66.8756 15.8755 66.6498C15.7775 66.4241 15.6308 66.2227 15.446 66.0602C14.9931 65.6836 14.4113 65.4982 13.824 65.5432C13.4276 65.5349 13.0336 65.6074 12.666 65.7562C12.3454 65.8907 12.0716 66.1168 11.879 66.4062C11.7037 66.6935 11.6132 67.0246 11.618 67.3612C11.6154 67.6018 11.6604 67.8406 11.7505 68.0637C11.8407 68.2868 11.974 68.4899 12.143 68.6612C12.635 69.0596 13.2637 69.2492 13.894 69.1892V69.1882ZM13.883 69.9352C13.1097 69.9835 12.3486 69.7248 11.765 69.2152C11.3528 68.8032 11.0898 68.2656 11.0173 67.6873C10.9449 67.109 11.0672 66.5231 11.365 66.0222C11.6031 65.6308 11.9508 65.3178 12.365 65.1222C12.8251 64.9145 13.3242 64.8075 13.829 64.8082C14.3399 64.8039 14.8451 64.915 15.307 65.1332C15.7299 65.3369 16.0793 65.6667 16.307 66.0772C16.5183 66.4745 16.6269 66.9182 16.623 67.3682C16.6375 67.8449 16.5109 68.3152 16.259 68.7202C16.0189 69.1139 15.6669 69.4272 15.248 69.6202C14.8232 69.8245 14.3584 69.9321 13.887 69.9352H13.883ZM14.637 71.3012L14.817 70.5892C15.3408 70.7025 15.8148 70.9799 16.17 71.3812C16.4838 71.7924 16.644 72.3004 16.623 72.8172C16.644 73.3063 16.5269 73.7915 16.285 74.2172C16.0208 74.586 15.6569 74.8718 15.236 75.0412C14.7725 75.2279 14.2767 75.3213 13.777 75.3162C13.2665 75.3251 12.7606 75.2174 12.298 75.0012C11.8893 74.8062 11.5513 74.4889 11.331 74.0932C11.1105 73.6956 10.9964 73.2478 11 72.7932C10.9861 72.3053 11.1322 71.8263 11.416 71.4292C11.7141 71.0566 12.1262 70.7921 12.589 70.6762L12.758 71.3712C12.4182 71.4614 12.1134 71.6517 11.883 71.9172C11.7014 72.1813 11.6099 72.4969 11.622 72.8172C11.6056 73.1811 11.7112 73.5401 11.922 73.8372C12.1181 74.1141 12.3988 74.3198 12.722 74.4232C13.064 74.5308 13.4196 74.5894 13.778 74.5972C14.1959 74.603 14.6116 74.5353 15.006 74.3972C15.3152 74.2736 15.5785 74.0574 15.76 73.7782C15.9318 73.5097 16.0211 73.1969 16.017 72.8782C16.0263 72.5056 15.9026 72.1418 15.668 71.8522C15.3985 71.5561 15.0343 71.3631 14.638 71.3062L14.637 71.3012ZM16.55 82.1842H11.082V78.2842H11.729V81.4412H13.405V78.5012H14.045V81.4412H15.888V78.1612H16.542L16.55 82.1842ZM15.896 86.8742V85.7302C15.9076 85.4516 15.8738 85.173 15.796 84.9052C15.7443 84.7267 15.6507 84.5632 15.523 84.4282C15.3219 84.245 15.0829 84.1085 14.823 84.0282C14.4845 83.9206 14.1299 83.8729 13.775 83.8872C13.3194 83.8602 12.8651 83.9592 12.462 84.1732C12.1847 84.315 11.9689 84.5533 11.855 84.8432C11.7594 85.1383 11.7184 85.4484 11.734 85.7582V86.8642L15.896 86.8742ZM16.55 87.5972H11.082V85.7442C11.0747 85.4277 11.1032 85.1113 11.167 84.8012C11.2212 84.5099 11.3536 84.2389 11.55 84.0172C11.8003 83.7212 12.1252 83.4974 12.491 83.3692C12.9041 83.2233 13.3399 83.1521 13.778 83.1592C14.15 83.1542 14.5207 83.2044 14.878 83.3082C15.1609 83.3836 15.4307 83.5016 15.678 83.6582C15.8693 83.7986 16.0347 83.9712 16.167 84.1682C16.302 84.3582 16.3972 84.5735 16.447 84.8012C16.5135 85.0834 16.5471 85.3723 16.547 85.6622L16.55 87.5972Z" fill="white"/>
<path id="Path 1936" fill-rule="evenodd" clip-rule="evenodd" d="M16.701 128.051H19.001V199.22H16.701V128.051ZM0.000976562 128.051H2.30098V199.22H0.000976562V128.051Z" fill="white"/>
</g>
</g>
</svg>
