<svg width="83" height="84" viewBox="0 0 83 84" fill="none" xmlns="http://www.w3.org/2000/svg">
<g id="Objeto inteligente vectorial">
<g id="Objeto inteligente vectorial_2">
<g id="Group 1486">
<path id="Path 1982" d="M41.499 84.01C18.616 84.01 -0.000976562 65.169 -0.000976562 42.01C-0.000976562 18.851 18.615 0.0100098 41.499 0.0100098C64.383 0.0100098 82.999 18.852 82.999 42.01C82.999 65.168 64.382 84.01 41.499 84.01ZM41.499 0.943008C19.125 0.943008 0.92202 19.366 0.92202 42.01C0.92202 64.654 19.122 83.077 41.499 83.077C63.876 83.077 82.077 64.655 82.077 42.01C82.077 19.365 63.874 0.943008 41.499 0.943008Z" fill="black"/>
</g>
<g id="Group 1487">
<path id="Path 1983" d="M19.841 48.598V42.664C19.8383 42.0645 20.0736 41.4884 20.4953 41.0623C20.9169 40.6361 21.4905 40.3947 22.09 40.391H60.211C60.5082 40.3927 60.8023 40.4529 61.0762 40.5683C61.3502 40.6837 61.5988 40.8519 61.8077 41.0633C62.0167 41.2748 62.1819 41.5253 62.294 41.8007C62.4061 42.076 62.4628 42.3707 62.461 42.668V48.602" stroke="black" stroke-width="0.949" stroke-miterlimit="10"/>
<path id="Path 1984" d="M13.368 52.849H26.705C27.382 52.849 27.932 52.549 27.932 52.179V44.898C27.932 44.528 27.382 44.229 26.705 44.229H13.368C12.691 44.229 12.141 44.529 12.141 44.898V52.179C12.142 52.55 12.691 52.849 13.368 52.849Z" fill="black"/>
<path id="Path 1985" d="M34.8309 52.849H48.1679C48.8449 52.849 49.3939 52.549 49.3939 52.179V44.898C49.3939 44.528 48.8449 44.229 48.1679 44.229H34.8309C34.1529 44.229 33.6039 44.529 33.6039 44.898V52.179C33.6049 52.55 34.1539 52.849 34.8309 52.849Z" fill="black"/>
<path id="Path 1986" d="M34.8309 36.056H48.1679C48.8449 36.056 49.3939 35.756 49.3939 35.386V28.105C49.3939 27.735 48.8449 27.436 48.1679 27.436H34.8309C34.1529 27.436 33.6039 27.736 33.6039 28.105V35.391C33.6049 35.756 34.1539 36.056 34.8309 36.056Z" fill="black"/>
<path id="Path 1987" d="M56.294 52.849H69.63C70.308 52.849 70.857 52.549 70.857 52.179V44.898C70.857 44.528 70.308 44.229 69.63 44.229H56.294C55.616 44.229 55.067 44.529 55.067 44.898V52.179C55.068 52.55 55.617 52.849 56.294 52.849Z" fill="black"/>
<path id="Line 9" d="M41.4999 33.437V46.527" stroke="black" stroke-width="0.954" stroke-miterlimit="10"/>
</g>
</g>
<path id="Color Overlay" d="M0 42.01C0 18.852 18.617 0.0100098 41.5 0.0100098C64.383 0.0100098 83 18.852 83 42.01C83 65.168 64.383 84.01 41.5 84.01C18.617 84.01 0 65.169 0 42.01ZM0.921997 42.01C0.921997 64.655 19.122 83.0769 41.499 83.0769C63.876 83.0769 82.076 64.655 82.076 42.01C82.076 19.365 63.876 0.943115 41.499 0.943115C19.122 0.943115 0.921997 19.366 0.921997 42.01ZM56.294 52.8501C55.616 52.8501 55.067 52.55 55.067 52.179V48.5991H49.393V52.179C49.393 52.551 48.844 52.8501 48.167 52.8501H34.832C34.154 52.8501 33.605 52.55 33.605 52.179V48.5991H27.932V52.179C27.932 52.551 27.383 52.8501 26.706 52.8501H13.368C12.691 52.8501 12.142 52.55 12.142 52.179V44.8999C12.142 44.5299 12.691 44.229 13.368 44.229H19.841V42.665C19.8392 42.3679 19.8958 42.0731 20.0079 41.7979C20.1199 41.5226 20.2851 41.2722 20.4939 41.0608C20.7027 40.8493 20.9512 40.6811 21.225 40.5657C21.4989 40.4503 21.7928 40.3898 22.09 40.3879H41.5V36.0571H34.831C34.153 36.0571 33.604 35.757 33.604 35.386V28.106C33.604 27.736 34.153 27.436 34.831 27.436H48.168C48.845 27.436 49.394 27.736 49.394 28.106V35.386C49.394 35.756 48.845 36.0571 48.168 36.0571H41.5V40.3879H60.211C60.5083 40.3896 60.8023 40.4501 61.0762 40.5654C61.3502 40.6808 61.5988 40.8489 61.8077 41.0603C62.0167 41.2718 62.1819 41.5223 62.294 41.7976C62.4061 42.0729 62.4628 42.3678 62.461 42.665V44.229H69.63C70.308 44.229 70.857 44.5289 70.857 44.8999V52.179C70.857 52.551 70.308 52.8501 69.63 52.8501H56.294Z" fill="white"/>
</g>
</svg>
