<svg width="83" height="85" viewBox="0 0 83 85" fill="none" xmlns="http://www.w3.org/2000/svg">
<g id="Objeto inteligente vectorial">
<g id="Group 1433">
<path id="Path 1939" d="M41.499 84.22C18.616 84.22 -0.000976562 65.379 -0.000976562 42.22C-0.000976562 19.061 18.615 0.219971 41.499 0.219971C64.383 0.219971 82.999 19.062 82.999 42.22C82.999 65.378 64.382 84.22 41.499 84.22ZM41.499 1.15297C19.125 1.15297 0.92202 19.576 0.92202 42.22C0.92202 64.864 19.122 83.287 41.499 83.287C63.876 83.287 82.078 64.865 82.078 42.22C82.078 19.575 63.874 1.15297 41.499 1.15297Z" fill="white"/>
</g>
<g id="Group 1453">
<g id="Group 1434">
<path id="Path 1940" d="M30.1611 65.23H24.5781C24.471 65.23 24.3684 65.1875 24.2927 65.1118C24.2171 65.0361 24.1746 64.9335 24.1746 64.8265C24.1746 64.7195 24.2171 64.6168 24.2927 64.5412C24.3684 64.4655 24.471 64.423 24.5781 64.423H30.1611C30.2681 64.423 30.3707 64.4655 30.4464 64.5412C30.5221 64.6168 30.5646 64.7195 30.5646 64.8265C30.5646 64.9335 30.5221 65.0361 30.4464 65.1118C30.3707 65.1875 30.2681 65.23 30.1611 65.23Z" fill="white"/>
</g>
<g id="Group 1435">
<path id="Path 1941" d="M58.421 65.23H52.839C52.732 65.23 52.6294 65.1875 52.5537 65.1118C52.4781 65.0361 52.4355 64.9335 52.4355 64.8265C52.4355 64.7195 52.4781 64.6168 52.5537 64.5412C52.6294 64.4655 52.732 64.423 52.839 64.423H58.421C58.5281 64.423 58.6307 64.4655 58.7064 64.5412C58.782 64.6168 58.8245 64.7195 58.8245 64.8265C58.8245 64.9335 58.782 65.0361 58.7064 65.1118C58.6307 65.1875 58.5281 65.23 58.421 65.23Z" fill="white"/>
</g>
<g id="Group 1452">
<g id="Group 1436">
<path id="Path 1942" d="M45.132 55.8349C45.177 54.5829 45.775 52.7699 48.369 51.2199C51.502 49.3509 52.889 45.7259 53.476 43.4519C52.7731 44.2276 51.9159 44.848 50.9593 45.2732C50.0027 45.6983 48.9678 45.919 47.921 45.9209C46.9154 45.917 45.921 45.7091 44.998 45.3099L44.898 45.4319L42.648 48.1219L41.887 49.0269L41.053 48.1919L41.019 48.1579L40.989 48.1219L38.739 45.4319L38.639 45.3099C37.2107 45.9283 35.6242 46.0821 34.1037 45.7496C32.5833 45.4171 31.2058 44.6151 30.166 43.4569C30.756 45.7319 32.145 49.3569 35.266 51.2199C37.859 52.7699 38.458 54.5839 38.502 55.8349C38.567 57.7039 37.488 59.6769 35.522 61.3939C35.6087 61.4335 35.6923 61.4796 35.772 61.5319C36.069 61.3366 36.4166 61.2323 36.772 61.2319C37.2659 61.2353 37.7382 61.4346 38.0852 61.786C38.4322 62.1373 38.6257 62.6121 38.623 63.1059V64.5809C40.7196 65.1409 42.9264 65.1409 45.023 64.5809V63.1069C45.0203 62.6129 45.2139 62.138 45.5612 61.7866C45.9084 61.4352 46.381 61.2361 46.875 61.2329C47.2285 61.2342 47.5739 61.3385 47.869 61.5329C47.9495 61.4802 48.0341 61.434 48.122 61.3949C46.146 59.6779 45.066 57.7009 45.132 55.8349ZM41.816 59.2819C41.5565 59.2839 41.3023 59.2088 41.0856 59.0661C40.8689 58.9234 40.6994 58.7195 40.5987 58.4804C40.498 58.2413 40.4706 57.9776 40.5199 57.7229C40.5692 57.4681 40.6931 57.2338 40.8758 57.0495C41.0585 56.8653 41.2918 56.7395 41.5461 56.688C41.8005 56.6365 42.0643 56.6617 42.3043 56.7604C42.5443 56.8591 42.7495 57.0268 42.894 57.2423C43.0385 57.4579 43.1158 57.7114 43.116 57.9709C43.1175 58.1426 43.0849 58.3129 43.0201 58.472C42.9554 58.6311 42.8598 58.7757 42.7388 58.8976C42.6178 59.0195 42.4739 59.1162 42.3154 59.1822C42.1568 59.2481 41.9867 59.282 41.815 59.2819H41.816ZM41.816 55.0609C41.5565 55.0629 41.3022 54.9877 41.0854 54.8449C40.8686 54.7022 40.6992 54.4982 40.5985 54.259C40.4979 54.0197 40.4706 53.7559 40.5201 53.5012C40.5695 53.2464 40.6936 53.012 40.8765 52.8278C41.0594 52.6437 41.2929 52.518 41.5474 52.4667C41.8018 52.4155 42.0658 52.441 42.3057 52.54C42.5456 52.639 42.7507 52.807 42.895 53.0228C43.0393 53.2386 43.1162 53.4923 43.116 53.7519C43.1171 53.9234 43.0842 54.0934 43.0193 54.2521C42.9544 54.4108 42.8587 54.5551 42.7377 54.6767C42.6168 54.7983 42.473 54.8947 42.3147 54.9605C42.1563 55.0262 41.9865 55.06 41.815 55.0599L41.816 55.0609Z" fill="white"/>
</g>
<g id="Group 1437">
<path id="Path 1943" d="M37.415 55.873C37.363 54.454 36.456 53.207 34.715 52.167C31.067 49.988 29.588 45.813 29.015 43.399C28.6155 44.3013 28.4375 45.286 28.496 46.271V51.1011C28.4882 52.9876 28.8583 54.8566 29.5844 56.5977C30.3106 58.3389 31.3781 59.9171 32.724 61.2391C32.745 61.2391 32.765 61.232 32.786 61.232C33.1302 61.2335 33.4669 61.3327 33.757 61.5181L33.703 61.439C36.091 59.77 37.478 57.69 37.415 55.873Z" fill="white"/>
</g>
<g id="Group 1438">
<path id="Path 1944" d="M54.6231 43.3771C54.0551 45.7901 52.5781 49.9771 48.9231 52.1671C47.1791 53.2081 46.2721 54.4551 46.2231 55.8731C46.1591 57.6891 47.5461 59.7731 49.9371 61.4391L49.8821 61.5181C50.1722 61.3329 50.5089 61.2337 50.8531 61.2321C50.8741 61.2321 50.8951 61.2391 50.9171 61.2391C52.2622 59.9167 53.3289 58.3384 54.0544 56.5973C54.7798 54.8561 55.1493 52.9873 55.1411 51.1011V46.2701C55.2006 45.2783 55.0231 44.2866 54.6231 43.3771Z" fill="white"/>
</g>
<g id="Group 1439">
<path id="Path 1945" d="M33.0661 62.39C32.9764 62.3535 32.8808 62.3338 32.7841 62.332C32.5797 62.3336 32.3844 62.4162 32.241 62.5617C32.0976 62.7072 32.0177 62.9037 32.0191 63.108V66.117C32.0262 66.3153 32.11 66.503 32.2528 66.6407C32.3956 66.7784 32.5862 66.8554 32.7846 66.8554C32.9829 66.8554 33.1736 66.7784 33.3163 66.6407C33.4591 66.503 33.5429 66.3153 33.5501 66.117V63.107C33.5403 62.9553 33.4904 62.8089 33.4056 62.6828C33.3207 62.5566 33.2039 62.4553 33.0671 62.389L33.0661 62.39Z" fill="white"/>
</g>
<g id="Group 1440">
<path id="Path 1946" d="M35.055 62.39C34.9664 62.3535 34.8718 62.3339 34.776 62.332C34.6792 62.3337 34.5836 62.3534 34.494 62.39C34.4068 62.4259 34.3271 62.4778 34.259 62.543C34.1586 62.641 34.0867 62.7644 34.051 62.9C34.0274 62.967 34.0136 63.0371 34.01 63.108V66.117C34.0137 66.188 34.0275 66.258 34.051 66.325C34.0931 66.4861 34.187 66.6288 34.3182 66.7313C34.4493 66.8337 34.6106 66.8902 34.777 66.892C34.8729 66.8907 34.9676 66.871 35.056 66.834C35.1641 66.789 35.2604 66.7196 35.3374 66.6313C35.4144 66.5431 35.47 66.4383 35.5 66.325C35.5239 66.2581 35.538 66.188 35.542 66.117V63.107C35.5381 63.036 35.524 62.966 35.5 62.899C35.4699 62.7857 35.414 62.6809 35.3369 62.5926C35.2597 62.5044 35.1633 62.435 35.055 62.39Z" fill="white"/>
</g>
<g id="Group 1441">
<path id="Path 1947" d="M36.765 62.332C36.6689 62.3339 36.574 62.3536 36.485 62.39C36.377 62.4353 36.2808 62.5049 36.204 62.5933C36.1272 62.6818 36.0717 62.7867 36.042 62.9C36.0181 62.967 36.0039 63.037 36 63.108V66.117C36.004 66.188 36.0181 66.2581 36.042 66.325C36.0838 66.4857 36.1772 66.6281 36.3078 66.7306C36.4384 66.833 36.599 66.8897 36.765 66.892C36.8662 66.8915 36.9662 66.871 37.0594 66.8318C37.1527 66.7925 37.2372 66.7353 37.3083 66.6633C37.3794 66.5913 37.4355 66.506 37.4736 66.4122C37.5116 66.3185 37.5308 66.2182 37.53 66.117V63.107C37.5307 63.0059 37.5114 62.9057 37.4733 62.812C37.4352 62.7183 37.3791 62.6331 37.308 62.5611C37.237 62.4891 37.1525 62.4319 37.0593 62.3926C36.9661 62.3533 36.8661 62.3327 36.765 62.332Z" fill="white"/>
</g>
<g id="Group 1442">
<path id="Path 1948" d="M50.848 62.332C50.7516 62.3338 50.6563 62.3535 50.567 62.39C50.4588 62.4353 50.3625 62.5048 50.2855 62.5932C50.2085 62.6817 50.1529 62.7867 50.123 62.9C50.0994 62.967 50.0856 63.0371 50.082 63.108V66.117C50.0857 66.188 50.0995 66.258 50.123 66.325C50.1651 66.4859 50.2588 66.6285 50.3898 66.731C50.5208 66.8334 50.6818 66.89 50.848 66.892C51.0523 66.8907 51.2478 66.8083 51.3914 66.663C51.535 66.5177 51.6151 66.3213 51.614 66.117V63.107C51.6148 62.9028 51.5347 62.7066 51.3911 62.5613C51.2475 62.4161 51.0523 62.3336 50.848 62.332Z" fill="white"/>
</g>
<g id="Group 1443">
<path id="Path 1949" d="M49.3741 62.543C49.2346 62.4099 49.0499 62.3345 48.8571 62.332C48.8491 62.332 48.8401 62.339 48.8311 62.339C48.7437 62.341 48.6574 62.3582 48.5761 62.39C48.468 62.4353 48.3719 62.5049 48.2951 62.5933C48.2182 62.6818 48.1628 62.7867 48.1331 62.9C48.1091 62.967 48.095 63.037 48.0911 63.108V66.117C48.0951 66.188 48.1092 66.2581 48.1331 66.325C48.1629 66.4382 48.2183 66.543 48.2952 66.6312C48.372 66.7195 48.4681 66.7889 48.5761 66.834C48.6571 66.8668 48.7436 66.8841 48.8311 66.885C48.8401 66.885 48.8491 66.892 48.8571 66.892C48.9539 66.8906 49.0496 66.8709 49.1391 66.834C49.247 66.7889 49.3432 66.7195 49.42 66.6312C49.4968 66.543 49.5523 66.4382 49.5821 66.325C49.6056 66.258 49.6194 66.188 49.6231 66.117V63.107C49.6195 63.0361 49.6057 62.966 49.5821 62.899C49.5466 62.7636 49.4746 62.6405 49.3741 62.543Z" fill="white"/>
</g>
<g id="Group 1444">
<path id="Path 1950" d="M47.1471 62.39C47.0585 62.3535 46.9639 62.3339 46.8681 62.332C46.8571 62.332 46.8501 62.339 46.8421 62.339C46.6428 62.3458 46.4541 62.4298 46.3158 62.5734C46.1774 62.7169 46.1004 62.9087 46.1011 63.108V66.117C46.1007 66.3162 46.1778 66.5077 46.3161 66.651C46.4544 66.7944 46.643 66.8783 46.8421 66.885C46.8501 66.885 46.8571 66.892 46.8681 66.892C46.9639 66.8907 47.0586 66.871 47.1471 66.834C47.2552 66.789 47.3515 66.7196 47.4285 66.6313C47.5055 66.5431 47.5611 66.4383 47.5911 66.325C47.6149 66.2581 47.6291 66.188 47.6331 66.117V63.107C47.6292 63.036 47.615 62.966 47.5911 62.899C47.561 62.7858 47.5054 62.6811 47.4284 62.5928C47.3514 62.5045 47.2551 62.4352 47.1471 62.39Z" fill="white"/>
</g>
<g id="Group 1445">
<path id="Path 1951" d="M41.815 42.778C41.4357 43.2994 40.9911 43.7699 40.492 44.178C40.2184 44.4032 39.929 44.6084 39.626 44.792L41.815 47.408L44.003 44.792C43.1471 44.271 42.4029 43.5859 41.813 42.776L41.815 42.778Z" fill="white"/>
</g>
<g id="Group 1446">
<path id="Path 1952" d="M35.7109 40.694C36.3499 40.6811 36.9583 40.4182 37.4056 39.9617C37.8529 39.5053 38.1035 38.8916 38.1035 38.2525C38.1035 37.6134 37.8529 36.9998 37.4056 36.5433C36.9583 36.0869 36.3499 35.824 35.7109 35.811C35.395 35.8105 35.0824 35.8741 34.7919 35.998C35.0051 36.1168 35.1727 36.303 35.2685 36.5274C35.3642 36.7519 35.3826 37.0018 35.3207 37.2378C35.2589 37.4739 35.1203 37.6827 34.9268 37.8313C34.7333 37.98 34.4959 38.0601 34.2519 38.059C34.0837 38.0569 33.9183 38.0154 33.769 37.938C33.6197 37.8605 33.4905 37.7493 33.3919 37.613C33.2878 37.9724 33.2687 38.351 33.3362 38.719C33.4037 39.087 33.5559 39.4342 33.7808 39.7332C34.0057 40.0322 34.297 40.2748 34.6319 40.4417C34.9667 40.6087 35.3358 40.6954 35.7099 40.695L35.7109 40.694Z" fill="white"/>
</g>
<g id="Group 1447">
<path id="Path 1953" d="M47.9211 35.811C47.7065 35.8156 47.4936 35.8492 47.2881 35.911C47.4727 36.0495 47.6091 36.2425 47.678 36.4628C47.7468 36.6831 47.7447 36.9194 47.6718 37.1384C47.5989 37.3574 47.459 37.5479 47.2719 37.683C47.0848 37.818 46.8599 37.8908 46.6291 37.891C46.4372 37.8884 46.2495 37.8347 46.0852 37.7356C45.9209 37.6365 45.7859 37.4955 45.6941 37.327C45.5421 37.6954 45.4827 38.0954 45.5211 38.492C45.5594 38.8886 45.6944 39.2698 45.9141 39.6022C46.1338 39.9346 46.4317 40.2081 46.7815 40.3988C47.1314 40.5894 47.5227 40.6915 47.9211 40.696C48.5601 40.6831 49.1685 40.4202 49.6158 39.9637C50.0631 39.5073 50.3137 38.8936 50.3137 38.2545C50.3137 37.6154 50.0631 37.0018 49.6158 36.5453C49.1685 36.0889 48.5601 35.826 47.9211 35.813V35.811Z" fill="white"/>
</g>
<g id="Group 1448">
<path id="Path 1954" d="M29.219 38.2511C29.2176 39.7122 29.7028 41.1323 30.598 42.2871C31.1991 43.0733 31.9729 43.7109 32.8596 44.1504C33.7464 44.59 34.7223 44.8198 35.712 44.8221C36.7188 44.8215 37.7111 44.5815 38.607 44.1221C38.707 44.0731 38.791 44.0101 38.885 43.9571C39.8891 43.3809 40.7227 42.549 41.301 41.5461C41.5057 41.1991 41.6784 40.8343 41.817 40.4561C42.3658 41.94 43.416 43.1855 44.786 43.9771C44.867 44.0251 44.946 44.0771 45.029 44.1221C45.925 44.5813 46.9172 44.8212 47.924 44.8221C48.9148 44.82 49.8918 44.5897 50.7792 44.149C51.6666 43.7083 52.4405 43.0692 53.041 42.2811C53.6088 41.5456 54.0148 40.6984 54.2322 39.795C54.4496 38.8917 54.4736 37.9526 54.3026 37.0393C54.1316 36.126 53.7695 35.2592 53.2399 34.4957C52.7104 33.7322 52.0254 33.0892 51.23 32.6091C51.349 32.4891 51.472 32.3451 51.597 32.1931C51.722 32.0411 51.822 31.9121 51.935 31.7571C52.5727 30.8499 53.1564 29.9059 53.683 28.9301C52.771 29.8531 49.617 30.1221 48.437 29.8911C48.3153 29.8768 48.1919 29.8901 48.076 29.9301C47.9115 30.1769 47.7203 30.4049 47.506 30.6101C47.2504 30.8546 46.971 31.073 46.672 31.2621C46.268 31.5191 45.8396 31.7354 45.393 31.9081C45.315 31.9841 45.234 32.0581 45.158 32.1311C45.031 32.1311 44.905 32.1231 44.78 32.1211C44.562 32.1871 44.335 32.2481 44.104 32.3011C43.7153 32.3915 43.3221 32.4609 42.926 32.5091C42.4049 32.5747 41.8802 32.6081 41.355 32.6091C41.164 32.6091 40.98 32.6001 40.793 32.5911C40.473 32.5781 40.157 32.5561 39.853 32.5231C39.2676 32.4536 38.6887 32.3372 38.122 32.1751C37.84 32.0961 37.567 32.0081 37.31 31.9071C36.7976 31.7108 36.3103 31.4547 35.858 31.1441C35.6258 30.9853 35.4074 30.8074 35.205 30.6121C34.9966 30.4131 34.8096 30.1929 34.647 29.9551C33.237 30.0411 30.747 29.7341 29.954 28.9311C30.4816 29.9066 31.0663 30.8503 31.705 31.7571C31.818 31.9121 31.93 32.0571 32.043 32.1931C32.156 32.3291 32.291 32.4931 32.409 32.6091C31.4354 33.1941 30.6299 34.0212 30.0709 35.0099C29.5119 35.9986 29.2184 37.1152 29.219 38.2511ZM52.257 38.2511C52.2572 38.9433 52.0917 39.6254 51.7742 40.2405C51.4567 40.8556 50.9965 41.3857 50.4321 41.7864C49.8677 42.1872 49.2155 42.4469 48.5301 42.5438C47.8447 42.6408 47.1461 42.5722 46.4927 42.3438C45.8393 42.1153 45.2501 41.7337 44.7744 41.2308C44.2987 40.728 43.9504 40.1185 43.7587 39.4534C43.5669 38.7883 43.5372 38.0869 43.6721 37.408C43.807 36.7291 44.1025 36.0923 44.534 35.5511C44.816 35.2701 45.102 34.9881 45.384 34.7121C46.1169 34.165 47.0064 33.8683 47.921 33.8661C49.0772 33.8735 50.1832 34.3394 50.9962 35.1615C51.8091 35.9837 52.2626 37.0949 52.257 38.2511ZM35.711 33.8671C36.6252 33.8696 37.5144 34.1662 38.247 34.7131C38.529 34.9891 38.816 35.2711 39.098 35.5521C39.6906 36.3244 40.0041 37.2748 39.9874 38.2482C39.9706 39.2216 39.6245 40.1606 39.0056 40.9121C38.3866 41.6636 37.5314 42.1832 36.5792 42.3862C35.6271 42.5893 34.6342 42.4637 33.7626 42.0301C32.8909 41.5965 32.1919 40.8803 31.7795 39.9984C31.3671 39.1166 31.2656 38.121 31.4917 37.174C31.7177 36.2271 32.2579 35.3846 33.0241 34.7841C33.7904 34.1835 34.7375 33.8603 35.711 33.8671Z" fill="white"/>
</g>
<g id="Group 1449">
<path id="Path 1955" d="M41.313 28.6191L35.198 25.7311V28.2571C35.198 29.3201 36.17 30.2571 37.667 30.8571C37.9485 30.9338 38.2254 31.027 38.496 31.1361C39.4272 31.3883 40.3882 31.5137 41.353 31.5091C44.753 31.5091 47.508 30.0541 47.508 28.2591V25.9391L42.258 28.6011L41.788 28.8411L41.313 28.6191Z" fill="white"/>
</g>
<g id="Group 1450">
<path id="Path 1956" d="M34.655 24.2629L35.197 24.5189L41.77 27.6189L47.507 24.7039L48.05 24.4299L48.593 24.1529L51.077 22.8909H41.817C41.6712 22.8909 41.5313 22.833 41.4281 22.7298C41.325 22.6267 41.267 22.4868 41.267 22.3409C41.267 22.1951 41.325 22.0552 41.4281 21.952C41.5313 21.8489 41.6712 21.7909 41.817 21.7909H50.131L41.77 17.5449L31.02 22.5449L34.112 24.0009L34.655 24.2629Z" fill="white"/>
</g>
<g id="Group 1451">
<path id="Path 1957" d="M51.8051 28.921C52.1461 28.921 52.4221 29.032 52.4221 28.453C52.3885 27.6133 52.2542 26.7807 52.0221 25.973C52.0731 25.134 52.1281 24.173 52.1491 23.573C52.1551 23.398 52.1601 23.251 52.1601 23.153C52.1535 23.0919 52.1422 23.0314 52.1261 22.972C52.1261 22.945 52.1151 22.919 52.1081 22.891C52.0737 22.6906 51.9906 22.5018 51.8661 22.341C51.7635 22.2055 51.6249 22.1015 51.4661 22.041C51.4661 22.041 51.4511 22.17 51.4481 22.341C51.4481 22.38 51.4481 22.42 51.4481 22.461C51.4481 22.538 51.4541 22.616 51.4611 22.695C51.4611 22.731 51.4611 22.766 51.4691 22.8C51.5031 22.8 51.5291 22.836 51.5471 22.89C51.5818 23.0028 51.6003 23.12 51.6021 23.238C51.6131 23.428 51.6131 23.65 51.6021 23.851C51.5911 24.151 51.5721 24.399 51.5721 24.399L51.7141 25.725C51.3754 26.5938 51.1958 27.5166 51.1841 28.449C51.1901 29.032 51.4671 28.921 51.8051 28.921Z" fill="white"/>
</g>
</g>
</g>
</g>
</svg>
