<svg width="28" height="39" viewBox="0 0 28 39" fill="none" xmlns="http://www.w3.org/2000/svg">
<g id="POINT">
<g id="POINT_2">
<g id="Group 1424">
<path id="Path 1928" d="M12.5841 37.4666C13.3652 39.0586 14.6339 39.0577 15.414 37.4666C18.7594 30.6329 26.9032 20.1554 27.1591 19.4622L27.2025 19.3473C27.7272 17.8864 27.9969 16.3463 28 14.7941C28 11.0812 26.5251 7.52034 23.8997 4.89492C21.2742 2.2695 17.7134 0.794556 14.0005 0.794556C10.2876 0.794556 6.72676 2.2695 4.10134 4.89492C1.47592 7.52034 0.000976563 11.0812 0.000976562 14.7941C0.00535041 15.8951 0.143461 16.9916 0.412274 18.0593L0.426755 18.1182C0.783985 19.5327 9.17791 30.5247 12.5841 37.4666ZM14.0015 7.02096C15.5341 7.04475 17.0255 7.52098 18.2883 8.38979C19.5511 9.25861 20.529 10.4813 21.099 11.9041C21.6691 13.327 21.8059 14.8866 21.4923 16.387C21.1787 17.8874 20.4286 19.2616 19.3364 20.337C18.2442 21.4124 16.8584 22.1411 15.3534 22.4313C13.8483 22.7216 12.291 22.5606 10.8772 21.9685C9.46331 21.3765 8.25599 20.3797 7.40688 19.1036C6.55778 17.8275 6.10476 16.3288 6.10477 14.796C6.11273 13.767 6.3233 12.7496 6.72446 11.8019C7.12561 10.8543 7.7095 9.99495 8.44279 9.27296C9.17607 8.55097 10.0444 7.98049 10.9981 7.5941C11.9519 7.2077 12.9724 7.01295 14.0015 7.02096Z" fill="black"/>
</g>
</g>
<path id="Color Overlay" d="M12.5841 37.4668C9.17693 30.525 0.783953 19.5329 0.425758 18.1166L0.411321 18.0576C0.14283 16.9902 0.00469919 15.8942 0 14.7935C0 11.0806 1.47494 7.51961 4.10036 4.89419C6.72578 2.26877 10.2866 0.793945 13.9995 0.793945C17.7124 0.793945 21.2733 2.26877 23.8987 4.89419C26.5241 7.51961 27.9991 11.0806 27.9991 14.7935C27.9959 16.3456 27.7265 17.8857 27.2025 19.3468L27.1591 19.4625C26.9061 20.1557 18.7594 30.6321 15.414 37.4668C15.0278 38.2633 14.5122 38.6621 13.9995 38.6621C13.4869 38.6621 12.9742 38.2633 12.5841 37.4668ZM6.10476 14.7935C6.08062 16.3602 6.52313 17.8988 7.37602 19.2133C8.22892 20.5279 9.45365 21.5587 10.8943 22.1751C12.3349 22.7915 13.9263 22.9654 15.4661 22.6746C17.0058 22.3838 18.4242 21.6414 19.5408 20.5421C20.6574 19.4427 21.4217 18.036 21.7364 16.501C22.0511 14.9659 21.9019 13.372 21.308 11.922C20.714 10.472 19.7021 9.23121 18.401 8.35801C17.0999 7.48481 15.5684 7.01863 14.0015 7.01845C12.9724 7.01043 11.9517 7.20524 10.9979 7.5917C10.0441 7.97816 9.17575 8.5486 8.44245 9.27069C7.70916 9.99278 7.12526 10.8524 6.72416 11.8001C6.32305 12.7479 6.11259 13.7653 6.10476 14.7944V14.7935Z" fill="white"/>
</g>
</svg>
