<svg width="18" height="18" viewBox="0 0 18 18" fill="none" xmlns="http://www.w3.org/2000/svg">
<path id="Shape" fill-rule="evenodd" clip-rule="evenodd" d="M8.46655 10.5378L2.22485 16.7795C1.91567 17.0886 1.47104 17.1452 1.23167 16.9059L0.148201 15.8224C-0.0911649 15.583 -0.0345751 15.1384 0.274606 14.8292L6.51631 8.58752L0.274606 2.34582C-0.034575 2.03664 -0.091165 1.592 0.148201 1.35264L1.23167 0.269168C1.47104 0.0298019 1.91567 0.0863918 2.22485 0.395572L8.46655 6.63727L14.8292 0.274605C15.1384 -0.0345754 15.583 -0.0911648 15.8224 0.148201L16.9059 1.23167C17.1452 1.47104 17.0886 1.91567 16.7795 2.22485L10.4168 8.58752L16.7795 14.9502C17.0886 15.2594 17.1452 15.704 16.9059 15.9434L15.8224 17.0268C15.583 17.2662 15.1384 17.2096 14.8292 16.9004L8.46655 10.5378Z" fill="#3D4E5A"/>
</svg>
